<?xml version="1.0" encoding="UTF-8" standalone="no"?>
<svg
   viewBox="-5 -10 76.394997 99.964233"
   version="1.1"
   id="svg11"
   width="76.394997"
   height="99.964233"
   xmlns="http://www.w3.org/2000/svg"
   xmlns:svg="http://www.w3.org/2000/svg">
  <defs
     id="defs11" />
  <path
     id="path1"
     d="m 53.585938,-10 c -1.289,0 -2.402501,0.7595938 -2.8125,1.9335938 -0.02439,0.057835 -0.03799,0.1173602 -0.05859,0.1757812 H 33.607422 c -0.351,0 -0.703313,0.1753437 -0.820313,0.5273438 l -2.986328,5.2148437 -5.449219,-2.34375 A 0.984,0.984 0 0 0 23.296875,-4.375 l -3.224609,2.8125 -1.931641,-5.6835938 c -0.176,-0.3509999 -0.529453,-0.6445312 -0.939453,-0.6445312 h -6.84961 -0.0039 -7.2031248 c -0.00395,0 -0.00777,-5.7e-6 -0.011719,0 -0.015461,-7.084e-4 -0.02935,-0.00781 -0.044922,-0.00781 -0.014487,0.00162 -0.026712,0.00949 -0.041016,0.011719 -4.4078388,0.053232 -7.9882812,3.6620212 -7.9882812,8.14062505 V 75.714844 C -4.9768466,76.018704 -5,76.327689 -5,76.640625 v 1.289063 c 0,4.511999 3.6915312,8.144531 8.1445312,8.144531 h 7.6757808 v 2.871093 a 0.935,0.935 0 0 0 0.46875,0.820313 0.945,0.945 0 0 0 0.527344,0.175781 v -0.002 c 0.117,0 0.235516,0.0014 0.353516,-0.05664 l 4.74414,-1.935546 4.570313,1.935546 a 1.06,1.06 0 0 0 0.939453,-0.06055 c 0.292,-0.234 0.408203,-0.52536 0.408203,-0.81836 v -2.929687 h 45.457031 c 0.587,0 0.996094,-0.412047 0.996094,-0.998047 V 72.365234 C 70.502384,71.945122 71.394531,70.802904 71.394531,69.5 v -7.851562 c 0,-0.176 -1.87e-4,-0.351344 -0.117187,-0.527344 l -0.878906,-1.40625 a 0.99,0.99 0 0 0 0.585937,-0.175782 c 0.293,-0.176 0.410156,-0.527312 0.410156,-0.820312 v -3.925781 c 0,-1.289 -0.761594,-2.4025 -1.933593,-2.8125 -0.05839,-0.02764 -0.118458,-0.04489 -0.177735,-0.06836 V 35.580078 a 0.967,0.967 0 0 0 -0.525391,-0.880859 l -2.753906,-1.582031 2.34375,-5.507813 c 0.175,-0.352 0.117219,-0.703094 -0.175781,-0.996094 l -2.8125,-3.222656 3.222656,-1.113281 c 0.41,-0.118 0.703125,-0.468906 0.703125,-0.878906 V 10.666016 c 0.03852,-0.01643 0.07872,-0.01994 0.117188,-0.03906 h 0.05859 c 1.171999,-0.528 1.933593,-1.6426405 1.933593,-2.9316405 v -5.15625 c 0,-0.41 -0.293125,-0.8205 -0.703125,-0.9375 L 67.351562,0.78125 70.808594,-0.74023438 c 0.351,-0.176 0.585937,-0.52790622 0.585937,-0.87890622 V -6.8945312 C 71.394531,-8.5935312 69.987109,-10 68.287109,-10 Z m 0.05859,1.9882812 h 14.703125 c 0.586,0 1.113282,0.5272813 1.113282,1.1132813 v 4.6289063 l -5.449219,2.4023437 c -0.352,0.177 -0.585938,0.52554688 -0.585938,0.9355469 A 1.071,1.071 0 0 0 64.1875,1.9492188 l 5.273438,1.40625 v 4.3925781 c 0,0.469 -0.293126,0.8806406 -0.703126,1.0566406 -0.121832,0.052299 -0.253741,0.070593 -0.388671,0.074219 -0.02759,-0.00228 -0.0521,-0.015625 -0.08008,-0.015625 -0.01556,0 -0.02948,0.0071 -0.04492,0.00781 C 67.964636,8.8502724 67.683348,8.7494502 67.46875,8.5703125 v -0.00391 L 52.824219,-6.078125 c -0.351,-0.41 -0.410375,-0.8204687 -0.234375,-1.2304688 v -0.058594 c 0.175,-0.41 0.526687,-0.6445313 1.054687,-0.6445313 z m 6.207031,1.8789063 c -0.528,0 -0.9375,0.4690937 -0.9375,0.9960937 0,0.5270001 0.4105,0.9960938 0.9375,0.9960938 h 6.621094 c 0.586,0 0.996094,-0.4680937 0.996094,-0.9960938 0,-0.5269999 -0.410094,-0.9960937 -0.996094,-0.9960937 z M 4.2128906,-5.8984375 H 9.3554688 V 68.554688 H 3.1445312 c -2.4431364,0 -4.6516877,1.097701 -6.1523437,2.820312 V 0.25585938 A 6.152,6.152 0 0 1 2.2226562,-5.7519531 L 3.7304688,16.238281 0.15625,25.90625 c -0.117,0.293 -0.1168125,0.6445 0.1171875,0.9375 l 4.7460937,6.5625 -4.57031245,9.140625 c -0.234,0.527 -0.0572969,1.113656 0.47070313,1.347656 0.11700002,0.059 0.29120312,0.05859 0.40820312,0.05859 a 0.967,0.967 0 0 0 0.8789062,-0.527344 l 4.8066407,-9.667969 c 0.117,-0.293 0.1158594,-0.703093 -0.1191407,-0.996093 l -4.7460937,-6.621094 3.515625,-9.375 c 0,-0.117 0.058594,-0.293156 0.058594,-0.410156 z m 7.1347654,0 H 16.5 l 2.226562,6.328125 c 0.118,0.351 0.351125,0.5865313 0.703126,0.6445313 0.058,0 0.175374,0.058594 0.234374,0.058594 0.235,0 0.468532,-0.117375 0.644532,-0.234375 l 3.808594,-3.3398437 5.683593,2.40429683 a 0.896,0.896 0 0 0 1.228516,-0.41015625 l 3.164062,-5.45117188 h 16.513672 c 0.137894,0.3963225 0.355732,0.7743476 0.652344,1.1132813 l 0.05859,0.058594 14.644531,14.703125 h 0.05859 c 0.360807,0.3278025 0.758601,0.5528325 1.171875,0.6972655 v 10.021484 l -3.925781,1.347657 c -0.351001,0.118 -0.586532,0.351531 -0.644532,0.644531 -0.059,0.351 -5.78e-4,0.6445 0.232422,0.9375 l 3.400391,3.808594 -2.519531,5.74414 c -0.176,0.468 1.56e-4,0.993516 0.410156,1.228516 l 3.105468,1.757812 v 15.677735 c -0.442528,0.139546 -0.863748,0.380956 -1.230468,0.724609 L 51.359375,67.328125 c -0.342246,0.365634 -0.574681,0.785476 -0.707031,1.226563 H 11.347656 Z m 14.234375,8.7851563 c -0.527,0 -0.996093,0.4100937 -0.996093,0.9960937 0,3.34 -2.69475,6.0351563 -6.09375,6.0351563 -0.527,0 -0.996094,0.4100932 -0.996094,0.9960932 v 40.539063 a 0.988,0.988 0 0 0 0.996094,0.996094 6.09,6.09 0 0 1 6.09375,6.09375 v 0.175781 a 0.988,0.988 0 0 0 0.996093,0.996094 h 27.476563 c 0.586,0 0.996094,-0.4105 0.996094,-0.9375 v -0.175782 c 0,-3.397999 2.75375,-6.152343 6.09375,-6.152343 0.527,0 0.9375,-0.4095 0.9375,-0.9375 V 10.914062 c 0,-0.586 -0.410094,-0.9960932 -0.996094,-0.9960932 A 6.027,6.027 0 0 1 54.054688,3.8828125 c 0,-0.586 -0.410094,-0.9960937 -0.996094,-0.9960937 z m 0.9375,1.9335937 h 25.660157 c 0.411,3.633 3.339656,6.5646095 6.972656,6.9746095 v 38.779297 c -3.691,0.41 -6.62125,3.457031 -7.03125,7.207031 H 26.519531 c -0.351,-3.75 -3.339297,-6.737031 -7.029297,-7.207031 v -38.78125 c 3.632,-0.41 6.561297,-3.3396565 7.029297,-6.9726565 z m 12.732422,9.5039065 c -0.0027,2.33e-4 -0.0051,0.0017 -0.0078,0.002 -0.08015,0.0057 -0.1607,0.01776 -0.242188,0.04492 a 0.982,0.982 0 0 0 -0.04883,0.03516 c -0.111967,0.0503 -0.213632,0.122147 -0.300781,0.212891 a 0.982,0.982 0 0 0 -0.08594,0.09961 c -0.06482,0.08791 -0.119256,0.186103 -0.15625,0.296875 l -0.398437,1.222656 c -5.93556,0.482433 -11.162336,4.617887 -13.021485,10.316407 h -2.453125 c -0.149057,-0.01061 -0.292679,0.01511 -0.425781,0.07227 -0.358851,0.140565 -0.626953,0.480536 -0.626953,0.923828 0,0.224467 0.08815,0.424611 0.226563,0.583985 0.05229,0.06552 0.111226,0.127414 0.18164,0.177734 l 2.34961,1.703125 c -0.0355,0.418509 -0.06641,0.848915 -0.06641,1.285156 0,4.391737 1.920274,8.45445 5.222657,11.363281 l -1.373047,4.212891 c -0.03452,0.08246 -0.0593,0.167231 -0.07227,0.255859 -0.02013,0.106855 -0.01878,0.216285 0.002,0.324219 0.0024,0.01382 0.0048,0.02733 0.0078,0.04102 0.0093,0.03913 0.02094,0.07718 0.03516,0.115234 0.0085,0.02378 0.01677,0.04735 0.02734,0.07031 0.01748,0.03786 0.03839,0.07355 0.06055,0.109375 0.0058,0.0088 0.0095,0.01872 0.01562,0.02734 0.0025,0.0031 0.0053,0.0048 0.0078,0.0078 0.121375,0.179493 0.298152,0.328411 0.519531,0.402344 h 0.292969 c 0.208307,0 0.41616,-0.06286 0.585937,-0.175781 l 3.921876,-2.847657 c 1.847514,0.738146 3.830071,1.148438 5.917968,1.148438 1.992421,0 4.023709,-0.413091 5.841797,-1.160157 l 3.894531,2.822266 c 0.07839,0.06005 0.165939,0.10785 0.259766,0.142578 a 0.945,0.945 0 0 0 0.07227,0.02734 c 0.06467,0.01873 0.131886,0.02866 0.199218,0.03516 a 0.945,0.945 0 0 0 0.04492,0.0078 1.192,1.192 0 0 0 0.01758,-0.0039 c 0.01381,5.3e-4 0.0272,0.0039 0.04102,0.0039 h 0.002 c 0.059,0 0.175969,4.06e-4 0.292969,-0.05859 a 0.982,0.982 0 0 0 0.01758,-0.0078 1.192,1.192 0 0 0 0.507812,-0.285156 c 0.22693,-0.362467 0.206689,-0.796221 -0.0039,-1.136718 L 49.21875,42.685547 c 3.311802,-2.906726 5.1875,-6.97881 5.1875,-11.384766 0,-0.436213 -0.02872,-0.865536 -0.06445,-1.283203 L 56.691406,28.3125 c 0.352,-0.234 0.526563,-0.644687 0.351563,-1.054688 a 0.95,0.95 0 0 0 -0.9375,-0.703124 h -2.50586 C 51.749289,20.873745 46.595358,16.740161 40.628906,16.240234 l -0.398437,-1.224609 c -0.0054,-0.01641 -0.01341,-0.03093 -0.01953,-0.04687 -0.015,-0.04006 -0.03101,-0.07907 -0.05078,-0.117188 -0.01212,-0.02313 -0.02549,-0.04455 -0.03906,-0.06641 -0.113288,-0.18498 -0.279068,-0.338483 -0.480469,-0.414062 -0.08133,-0.02716 -0.162104,-0.03924 -0.242187,-0.04492 -0.02585,-0.0025 -0.05184,-0.0017 -0.07813,-0.002 -0.02288,3e-4 -0.0458,-0.002 -0.06836,0 z m -1.898437,3.93164 -2.705078,8.298829 h -7.59961 c 1.673886,-4.384293 5.675289,-7.601528 10.304688,-8.298829 z m 3.93164,0.0098 c 4.604458,0.713342 8.585104,3.920546 10.253906,8.289063 h -7.560546 z m -1.964844,0.128906 2.644532,8.160157 h -5.289063 z m -13.830078,10.09375 h 8.527344 l -1.628906,5 -6.314453,-4.578125 c -0.09863,-0.119939 -0.23147,-0.206839 -0.376953,-0.271484 z m 10.558594,0 h 6.542969 l 2.003906,6.183594 -5.283203,3.833984 -5.271484,-3.820312 z m 8.556641,0 h 8.511719 l -0.232422,0.167969 c -0.03973,0.02056 -0.06909,0.05276 -0.105469,0.07813 l -6.548828,4.751953 z m 7.857422,2.894531 a 13.192,13.192 0 0 1 -3.931641,9.189454 l -1.664062,-5.125 z m -26.289063,0.0332 5.574219,4.039062 -1.697266,5.210938 c -2.438483,-2.447363 -3.846235,-5.776617 -3.876953,-9.25 z m 19.058594,5.21875 2.609375,8.050781 -6.855469,-4.966797 z m -11.830078,0.01953 4.234375,3.068359 -6.835938,4.960938 z m 5.908203,4.28125 3.986328,2.888672 c -1.292051,0.38359 -2.633751,0.597656 -3.949219,0.597656 A 14.016,14.016 0 0 1 35.392578,43.78125 Z m 28.736328,12.779297 a 1.087,1.087 0 0 1 0.652344,0.07813 h 0.05859 c 0.469,0.175 0.703126,0.585687 0.703126,1.054687 v 2.460938 l -0.9375,-0.351563 c -0.41,-0.117 -0.820282,-3.1e-5 -1.113282,0.292969 -0.235,0.293 -0.292593,0.762281 -0.05859,1.113281 l 2.109376,3.574219 v 7.617188 c 0,0.527 -0.527282,1.054687 -1.113282,1.054687 H 53.644531 c -0.527,0 -0.879687,-0.234531 -1.054687,-0.644531 v -0.05859 c -0.176,-0.41 -0.117625,-0.879469 0.234375,-1.230469 l -0.002,-0.0039 14.646484,-14.644531 a 1.087,1.087 0 0 1 0.578125,-0.3125 z m -1.574219,6.40625 c -0.528,0 -0.9375,0.4095 -0.9375,0.9375 v 6.621094 c 0,0.585999 0.4105,0.996093 0.9375,0.996093 0.586,0 0.996094,-0.409093 0.996094,-0.996093 v -6.621094 c 0,-0.528 -0.410094,-0.9375 -0.996094,-0.9375 z M 3.1445312,70.488281 h 7.1874998 c 0.0068,1.36e-4 0.01272,0.0039 0.01953,0.0039 0.0068,0 0.01274,-0.0038 0.01953,-0.0039 h 40.339844 c 0.02119,0.05994 0.03768,0.120664 0.0625,0.179688 0.411,1.113 1.5225,1.875 2.8125,1.875 H 67.351562 V 84.140625 H 22.832031 v -7.027344 h 3.21875 a 0.988,0.988 0 0 0 0.996094,-0.996093 c 0,-0.528001 -0.469094,-0.9375 -0.996094,-0.9375 H 7.65625 c -0.527,-10e-7 -0.9960938,0.410499 -0.9960938,0.9375 A 0.988,0.988 0 0 0 7.65625,77.113281 h 3.164062 v 7.027344 H 3.1445312 c -3.39799995,0 -6.1523437,-2.812938 -6.1523437,-6.210937 v -1.226563 -0.0625 a 6.152,6.152 0 0 1 6.1523437,-6.152344 z m 39.6601568,5.863281 c -0.586001,0 -0.996094,0.4105 -0.996094,0.9375 0,0.586001 0.410094,0.996094 0.996094,0.996094 h 11.421874 c 0.586001,0 0.996094,-0.410094 0.996094,-0.996094 0,-0.528 -0.410094,-0.9375 -0.996094,-0.9375 z M 12.8125,77.113281 h 8.085938 v 7.929688 c -4.9e-4,0.01197 -0.0039,0.02306 -0.0039,0.03516 a 0.988,0.988 0 0 0 0.0039,0.01563 v 2.386719 l -3.574219,-1.523438 c -0.293,-0.118 -0.527719,-0.118 -0.761719,0 l -3.75,1.523438 z M 34.25,80.273438 c -0.527,-10e-7 -0.996094,0.410499 -0.996094,0.9375 0,0.586 0.410094,0.996093 0.996094,0.996093 h 24.839844 c 0.586,0 0.996094,-0.410094 0.996094,-0.996093 -10e-7,-0.528001 -0.4105,-0.9375 -0.9375,-0.9375 z" />
</svg>
