<?xml version="1.0" encoding="UTF-8" standalone="no"?>
<!-- Uploaded to: SVG Repo, www.svgrepo.com, Generator: SVG Repo Mixer Tools -->

<svg
   version="1.1"
   id="designs"
   width="699.9599"
   height="651.77936"
   viewBox="0 0 27.998396 26.071174"
   xml:space="preserve"
   xmlns="http://www.w3.org/2000/svg"
   xmlns:svg="http://www.w3.org/2000/svg">
<path
   id="path1"
   class="sketchy_een"
   d="m 18.148594,0 c -0.14,0 -0.281016,0.00103125 -0.421016,0.00203125 -0.826,0.008 -1.649984,0.0099375 -2.473984,0.0159375 -0.986,0.004 -1.969985,0.01701562 -2.953985,0.02101562 -0.507,0.002 -1.012984,-0.0019687 -1.518984,-0.0079687 -0.538,-0.004 -1.0790313,-0.01004688 -1.6170313,-0.0080469 -0.26,0.001 -0.484,0.13904687 -0.63,0.33804687 -0.018,0.015 -0.041031,0.0209844 -0.057031,0.0389844 -0.301,0.318 -0.5959531,0.6730156 -0.8069531,1.0610156 -0.21,0.39 -0.3690312,0.805 -0.5020312,1.225 -0.237,0.748 -0.4429844,1.5160156 -0.5839844,2.2860156 -0.295,1.622 -0.4529844,3.2659687 -0.6439844,4.9029687 -0.108,0.9290001 -0.2190468,1.8579691 -0.3380468,2.7879691 -0.154,1.12 -0.3479688,2.235 -0.6079688,3.335 -0.133,0.558 -0.2780312,1.113062 -0.4570312,1.659062 -0.17,0.525 -0.376,1.039985 -0.59,1.548985 -0.16,0.365 -0.324,0.738968 -0.545,1.072968 -0.019,0.021 -0.026984,0.04802 -0.043984,0.07102 h -0.018984 c -0.805,0 -1.6099843,0.004 -2.41398433,0.01703 -0.211,0.004 -0.40404687,0.09098 -0.54804687,0.228985 -0.288,0.188 -0.442,0.541984 -0.35,0.888984 0.096,0.367 0.17204687,0.745031 0.30304687,1.102031 0.149,0.409 0.32795312,0.800953 0.52695312,1.186953 0.19100001,0.372 0.40504691,0.715985 0.66804691,1.043985 0.22,0.274 0.4789843,0.505062 0.7489843,0.729062 0.164,0.134 0.33,0.218969 0.54,0.232969 0.109,0.052 0.2280157,0.087 0.3560157,0.09 1.731,0.041 3.4619687,-0.01902 5.1929687,-0.03102 1.6859999,-0.012 3.3730159,-0.004 5.0610159,-0.01398 0.87,-0.006 1.741968,0.01 2.612968,0.02297 0.262,0.006 0.527016,0.0061 0.791016,0.0041 0.536,-0.002 1.077016,-0.002 1.611016,0.04398 0.011,0.001 0.02103,-0.006 0.03203,-0.005 0.307,0.239 0.801953,0.257985 1.071953,-0.05101 0.291,-0.336 0.563016,-0.695016 0.801016,-1.071016 0.247,-0.39 0.412984,-0.817953 0.578984,-1.246953 0.284,-0.729 0.527047,-1.491047 0.683047,-2.258047 0.342,-1.663 0.566969,-3.352 0.752969,-5.04 0.061,-0.56 0.123,-1.119984 0.195,-1.678984 0.136,-0.949 0.284984,-1.896016 0.413984,-2.846016 0.18,-1.298 0.4,-2.5890153 0.68,-3.8710153 0.068,-0.311 0.138984,-0.6219531 0.213984,-0.9319531 0.003,0.003 0.004,0.00698 0.006,0.00898 0.141,0.141 0.371984,0.2589843 0.578984,0.2389843 0.834,-0.081 1.665047,-0.1309843 2.503047,-0.1789843 0.112,-0.006 0.218016,-0.034984 0.316016,-0.078984 0.057,-0.002 0.114937,0.00498 0.170937,-0.011016 0.426,-0.12 0.629032,-0.546 0.542032,-0.965 C 27.899594,5.522 27.797609,5.1359687 27.679609,4.7579687 27.567609,4.3909687 27.413594,4.04 27.268594,3.685 c -0.172,-0.424 -0.351016,-0.8240156 -0.606016,-1.2060156 -0.253,-0.378 -0.530969,-0.7429532 -0.792969,-1.1169532 -0.1,-0.144 -0.223,-0.2470312 -0.375,-0.3170312 -0.02,-0.015 -0.033,-0.037 -0.055,-0.05 -0.031,-0.018 -0.06505,-0.0270156 -0.09805,-0.0410156 -0.012,-0.334 -0.226,-0.65598437 -0.565,-0.73898437 -0.405,-0.098 -0.83,-0.11601563 -1.245,-0.14101562 C 23.168562,0.05098437 22.805594,0.035 22.443594,0.03 21.658594,0.015 20.872578,0.02201563 20.087578,0.01601563 19.442578,0.01301563 18.795594,0 18.148594,0 Z m -1.37,1.48 c 0.822,0.002 1.641984,0.026969 2.463984,0.047969 0.843,0.021 1.686047,0.035062 2.528047,0.039063 0.76,0.002 1.518984,0.02 2.273984,0.105 0.029,0.005 0.05795,0.010938 0.08695,0.015938 -0.354,0.632 -0.669937,1.2840313 -0.915937,1.9670313 -0.285,0.795 -0.521016,1.6000156 -0.731016,2.4160156 -0.415,1.617 -0.745047,3.2510156 -0.998047,4.9010154 -0.089,0.583 -0.167953,1.166969 -0.256953,1.747969 -0.083,0.536 -0.173984,1.072984 -0.248984,1.608984 -0.166,1.186 -0.268016,2.375 -0.416016,3.56 -0.13,0.936 -0.280984,1.870047 -0.468984,2.798047 -0.191,0.941 -0.498016,1.863938 -0.856016,2.755938 -0.14,0.294 -0.316015,0.561015 -0.501015,0.826015 -0.056,-0.072 -0.110985,-0.145 -0.188985,-0.195 -0.159,-0.141 -0.298031,-0.297015 -0.432031,-0.461015 -0.213,-0.301 -0.370984,-0.622938 -0.518984,-0.955938 -0.172,-0.457 -0.286032,-0.934062 -0.412032,-1.404062 -0.003,-0.01 -0.009,-0.01694 -0.01195,-0.02594 -0.021,-0.07 -0.05098,-0.132016 -0.08898,-0.191016 -0.01,-0.015 -0.019,-0.02803 -0.03,-0.04203 -0.043,-0.056 -0.08902,-0.105984 -0.146016,-0.148984 -0.019,-0.015 -0.04002,-0.026 -0.06102,-0.04 -0.053,-0.033 -0.106016,-0.06503 -0.166016,-0.08703 -0.029,-0.011 -0.06,-0.01394 -0.09,-0.02094 -0.054,-0.013 -0.104016,-0.03405 -0.161016,-0.03805 -0.378,-0.023 -0.756,-0.02501 -1.135,-0.04102 -0.405,-0.019 -0.809968,-0.03895 -1.217968,-0.05195 -0.791,-0.025 -1.581969,-0.03903 -2.372969,-0.07703 -0.778,-0.037 -1.555,-0.08901 -2.3350001,-0.106015 -0.78,-0.017 -1.5590156,-0.02695 -2.3410156,-0.02695 -0.651,0 -1.3029843,-0.002 -1.9539843,-0.005 0.024,-0.054 0.051938,-0.110047 0.075938,-0.163047 0.181,-0.394 0.3360312,-0.798953 0.4920312,-1.201953 0.286,-0.747 0.5230156,-1.499016 0.7260156,-2.271016 0.407,-1.557 0.6679688,-3.142984 0.8629688,-4.738984 0.193,-1.582 0.348,-3.1670473 0.545,-4.7480473 0.108,-0.788 0.226,-1.574 0.385,-2.355 0.079,-0.388 0.1950156,-0.7719843 0.3010156,-1.1539843 0.106,-0.375 0.2229844,-0.7439688 0.3589844,-1.1079688 0.111,-0.237 0.2409843,-0.4560156 0.3939843,-0.6710156 0.096,-0.115 0.1980157,-0.2260156 0.3010157,-0.3360156 1.5879999,-0.029 3.1739999,-0.082969 4.7599999,-0.1079688 0.834,-0.014 1.667016,-0.017016 2.501016,-0.016016 z m 8.365,1.6289844 c 0.02,0.026 0.03897,0.052984 0.05797,0.078984 0.209,0.284 0.375063,0.58 0.519063,0.9 0.138,0.328 0.273953,0.656 0.391953,0.99 0.039,0.111 0.06203,0.227 0.09703,0.34 -0.59,0.015 -1.179015,0.042047 -1.766015,0.093047 -0.083,0.006 -0.157016,0.025953 -0.231016,0.046953 0.176,-0.605 0.371031,-1.2049531 0.602031,-1.7919531 0.102,-0.224 0.214985,-0.4410312 0.328985,-0.6570312 z m -7.855,4.0749999 c -0.116,0 -0.232,0.010016 -0.345,0.016016 -0.205,0.009 -0.410016,0.014984 -0.616016,0.018984 -0.425,0.005 -0.849984,0.017031 -1.273984,0.042031 -0.658,0.04 -1.314,0.030969 -1.97,0.022969 -0.352,-0.006 -0.703032,-0.00997 -1.052032,-0.00797 -0.399,0.004 -0.730937,0.3300156 -0.730937,0.7310156 0,0.391 0.331937,0.7409375 0.730937,0.7309375 0.972,-0.023 1.945063,-0.087984 2.919063,-0.1039844 0.415,-0.005 0.831953,0.00403 1.246953,0.012031 0.116,0.004 0.230984,0.00195 0.348984,0.00195 0.218,0 0.438016,-9.844e-4 0.656016,0.016016 0.195,0.033 0.375984,0.024 0.553984,-0.08 0.168,-0.099 0.293,-0.263 0.345,-0.45 0.052,-0.193 0.02505,-0.4049843 -0.07695,-0.5789843 -0.139,-0.237 -0.377984,-0.3549844 -0.643984,-0.3689844 -0.031,-0.001 -0.06103,-0.00203 -0.09203,-0.00203 z M 16.452578,10.27 c -0.013,0 -0.027,0.001 -0.04,0.002 -0.376,0.037 -0.76,0.02297 -1.14,0.02297 -0.438,-0.002 -0.875953,0 -1.311953,0.025 -0.525,0.029 -1.048016,0.01802 -1.571016,0.006 -0.411,-0.008 -0.822047,-0.01805 -1.233047,-0.008 -0.403,0.012 -0.740937,0.330015 -0.740937,0.741015 0,0.388 0.337937,0.762016 0.740937,0.741016 0.486,-0.025 0.971,-0.05202 1.455,-0.06602 0.45,-0.013 0.899063,-0.009 1.349063,-0.025 0.815,-0.027 1.638969,-0.03701 2.452969,0.004 0.394,0.019 0.722031,-0.343953 0.722031,-0.721953 0,-0.189 -0.07703,-0.373985 -0.212031,-0.508985 -0.114,-0.115 -0.298016,-0.212031 -0.471016,-0.212031 z m -0.983984,3.067031 c -0.141,0 -0.279985,0.003 -0.418985,0.009 -0.479,0.021 -0.958047,0.02698 -1.438047,0.02898 -0.484,0.002 -0.968968,0.014 -1.452968,0.01 -0.536,-0.004 -1.071032,-0.04102 -1.607032,-0.04102 -0.417,0 -0.7619527,0.345032 -0.7619527,0.762032 0,0.405 0.3449527,0.776 0.7619527,0.76 0.516,-0.016 1.031047,-0.05998 1.548047,-0.06399 0.496,-0.005 0.994,-0.005 1.49,-0.01703 0.859,-0.019 1.728985,-0.02297 2.583985,0.08703 -0.068,-0.01 -0.133016,-0.01903 -0.201016,-0.02703 0.014,0 0.02598,0.002 0.03898,0.004 0.212,0.029 0.388016,0.037 0.581016,-0.075 0.167,-0.099 0.295,-0.262953 0.345,-0.451953 0.054,-0.193 0.027,-0.405015 -0.075,-0.581015 -0.143,-0.245 -0.381016,-0.350032 -0.651016,-0.372032 -0.245,-0.022 -0.494968,-0.03195 -0.742968,-0.03195 z m -9.5439847,8.52 c 1.58,0.002 3.1639692,0.01897 4.7429687,0.09797 1.708,0.082 3.420984,0.130984 5.128984,0.243984 0.046,0.159 0.08906,0.319016 0.139063,0.476016 0.112,0.345 0.261937,0.677 0.420937,1.005 0.102,0.213 0.220032,0.409015 0.347032,0.601015 -0.212,-0.002 -0.424016,-0.003 -0.636016,-0.005 -0.836,-0.004 -1.668969,-0.004 -2.502969,-0.01 -1.683,-0.01 -3.365047,-0.004 -5.0480466,-0.01 -0.878,-0.004 -1.7539531,-1.5e-5 -2.6319531,-0.006 -0.886,-0.006 -1.7739999,-0.04 -2.6599999,-0.07 -0.192,-0.164 -0.376,-0.331969 -0.545,-0.522969 -0.294,-0.409 -0.5280313,-0.86 -0.7320313,-1.32 -0.049,-0.136 -0.086969,-0.273 -0.1279687,-0.41 0.557,-0.016 1.114,-0.03306 1.67,-0.04906 0.81,-0.023 1.6249999,-0.02094 2.4349999,-0.02094 z" />
</svg>
