<?xml version="1.0" encoding="UTF-8" standalone="no"?>
<!-- Uploaded to: SVG Repo, www.svgrepo.com, Generator: SVG Repo Mixer Tools -->

<svg
   width="666.66669"
   height="600"
   viewBox="0 0 20.000001 18"
   fill="none"
   version="1.1"
   id="svg1"
   xmlns="http://www.w3.org/2000/svg"
   xmlns:svg="http://www.w3.org/2000/svg">
  <path
     id="path1"
     style="fill:#000000;stroke-linecap:round;stroke-linejoin:round"
     d="M 4.0000196,0 A 1,1 0 0 0 3,1.0000195 V 13.177735 L 0.38671875,15.210938 A 1,1 0 0 0 0.2109375,16.613262 1,1 0 0 0 1.6132617,16.789043 L 3,15.710918 v 1.289063 A 1,1 0 0 0 4.0000196,18 1,1 0 0 0 4.9999805,16.999981 V 14.154317 L 7.0000196,12.59959 v 4.400391 A 1,1 0 0 0 7.9999805,18 1,1 0 0 0 9.0000001,16.999981 V 11.042988 L 10.999981,9.4882618 V 16.999981 A 1,1 0 0 0 12,18 1,1 0 0 0 13.00002,16.999981 V 7.9335938 L 15,6.3769337 V 16.999981 A 1,1 0 0 0 16.00002,18 1,1 0 0 0 16.999981,16.999981 V 4.8222657 L 19.613262,2.7890625 A 1,1 0 0 0 19.789043,1.3867383 1,1 0 0 0 18.386719,1.210957 L 16.999981,2.2890821 V 1.0000195 A 1,1 0 0 0 16.00002,0 1,1 0 0 0 15,1.0000195 V 3.8456836 L 13.00002,5.4004102 V 1.0000195 A 1,1 0 0 0 12,0 1,1 0 0 0 10.999981,1.0000195 V 6.9570118 L 9.0000001,8.5117384 V 1.0000195 A 1,1 0 0 0 7.9999805,0 1,1 0 0 0 7.0000196,1.0000195 V 10.066406 L 4.9999805,11.623067 V 1.0000195 A 1,1 0 0 0 4.0000196,0 Z" />
</svg>
