<svg xmlns="http://www.w3.org/2000/svg" viewBox="-5 -10 110 135"><path fill-rule="evenodd" d="M85.062 63.68a.926.926 0 0 1-.938-.938V46.165l-3.105-1.758c-.41-.235-.586-.762-.41-1.23l2.52-5.743-3.4-3.809c-.233-.293-.292-.586-.233-.937.058-.293.293-.527.644-.645l3.926-1.347V19.86c0-.586.469-.996.996-.996s.996.41.996.996v11.539c0 .41-.293.761-.703.879l-3.223 1.113 2.813 3.223c.293.293.351.644.176.996l-2.344 5.507L85.53 44.7a.967.967 0 0 1 .527.88v17.163c0 .528-.41.938-.996.938zM36.437 11.133c-.059 0-.176-.059-.234-.059-.352-.058-.586-.293-.704-.644l-2.226-6.328H27.12c-.528 0-.938-.469-.938-.996 0-.528.41-.996.938-.996h6.855c.41 0 .762.293.938.644l1.933 5.684 3.223-2.813a.984.984 0 0 1 1.055-.117l5.449 2.344 2.988-5.215c.117-.352.469-.527.82-.527h17.926c.528 0 .938.468.938.996 0 .527-.41.996-.938.996h-17.34l-3.164 5.45a.896.896 0 0 1-1.23.41L40.89 7.558l-3.808 3.34c-.176.117-.41.234-.645.234z"/><path fill-rule="evenodd" d="M12.77 87.641c-.527 0-.938-.41-.938-.996V10.254c0-4.512 3.633-8.145 8.086-8.145h7.207c.528 0 .996.47.996.997v76.448c0 .528-.468.938-.996.938s-.996-.41-.996-.938V4.102h-6.21a6.152 6.152 0 0 0-6.153 6.153v76.449c0 .527-.469.937-.996.937z"/><path fill-rule="evenodd" d="M85.062 96.074H38.664a.988.988 0 0 1-.996-.996c0-.527.469-.938.996-.938h45.461V81.546c0-.527.41-.937.938-.937.585 0 .996.41.996.937v13.531c0 .586-.41.997-.997.997zm-56.473 0h-8.672c-4.453 0-8.144-3.633-8.144-8.145V86.64c0-4.453 3.691-8.086 8.144-8.086H68.25c.586 0 .996.41.996.938 0 .586-.41.996-.996.996H19.917a6.152 6.152 0 0 0-6.152 6.152v1.29c0 3.398 2.754 6.21 6.152 6.21h8.672c.527 0 .996.41.996.938a.988.988 0 0 1-.996.996z"/><path fill-rule="evenodd" d="M42.824 87.113H24.429a.988.988 0 0 1-.996-.996c0-.527.469-.938.996-.938h18.395c.527 0 .996.41.996.938a.988.988 0 0 1-.996.996z"/><path fill-rule="evenodd" d="M28.59 99.941a.945.945 0 0 1-.527-.176.935.935 0 0 1-.47-.82V86.117c0-.527.47-.938.997-.938s.996.41.996.938V97.48l3.75-1.523c.234-.118.469-.118.762 0l3.574 1.523V86.175c0-.586.469-.996.996-.996s.938.41.938.996v12.828c0 .293-.118.586-.41.82a1.06 1.06 0 0 1-.938.059l-4.57-1.934-4.746 1.934c-.118.058-.235.058-.352.058zM71 88.285H59.578c-.586 0-.996-.41-.996-.996 0-.527.41-.938.996-.938H71c.586 0 .996.41.996.938 0 .586-.41.996-.996.996zM75.863 92.207h-24.84c-.586 0-.996-.41-.996-.996 0-.527.469-.938.996-.938h24.898c.527 0 .937.41.937.938 0 .586-.41.996-.996.996zM69.832 69.715H42.355a.988.988 0 0 1-.996-.996v-.176a6.09 6.09 0 0 0-6.094-6.094.988.988 0 0 1-.996-.996V20.914c0-.586.469-.996.996-.996 3.399 0 6.094-2.695 6.094-6.035 0-.586.469-.996.996-.996h27.477c.586 0 .996.41.996.996a6.027 6.027 0 0 0 6.035 6.035c.586 0 .996.41.996.996v40.598c0 .528-.41.938-.937.938-3.34 0-6.094 2.754-6.094 6.152v.176c0 .527-.41.937-.996.937zm-26.539-1.934h25.602c.41-3.75 3.34-6.797 7.031-7.207v-38.78c-3.633-.41-6.562-3.34-6.973-6.973h-25.66c-.468 3.633-3.398 6.562-7.03 6.972v38.781c3.69.47 6.679 3.457 7.03 7.207zM85.062 20.855c-.762 0-1.523-.293-2.168-.879h-.059L68.19 5.273l-.058-.059c-.82-.937-1.055-2.168-.586-3.28C67.956.76 69.069 0 70.358 0h14.703c1.7 0 3.106 1.406 3.106 3.105V8.38c0 .351-.235.703-.586.879l-3.457 1.523 3.34.82c.41.117.703.528.703.938v5.156c0 1.289-.762 2.402-1.934 2.93h-.058c-.352.175-.703.234-1.114.234zm-.82-2.285c.351.293.879.41 1.289.234.41-.176.703-.586.703-1.055v-4.394l-5.273-1.406a1.071 1.071 0 0 1-.762-.88c0-.41.234-.76.586-.937l5.449-2.402V3.101c0-.586-.527-1.113-1.113-1.113H70.418c-.528 0-.88.234-1.055.644v.059c-.176.41-.117.82.234 1.23l14.645 14.645z"/><path fill-rule="evenodd" d="M83.246 5.86h-6.621c-.527 0-.938-.47-.938-.997s.41-.996.938-.996h6.621c.586 0 .996.469.996.996 0 .528-.41.996-.996.996zM85.062 82.543H70.359c-1.29 0-2.402-.762-2.813-1.875-.468-1.113-.292-2.402.586-3.34l14.762-14.762c.938-.879 2.227-1.113 3.34-.586 1.172.41 1.934 1.524 1.934 2.813v3.926c0 .293-.117.644-.41.82a.99.99 0 0 1-.586.176l.879 1.406c.117.176.117.351.117.527V79.5c0 1.64-1.406 3.047-3.106 3.047zm-15.465-3.867c-.352.351-.41.82-.234 1.23v.059c.175.41.527.644 1.054.644H85.12c.586 0 1.114-.527 1.114-1.054v-7.617l-2.11-3.575c-.234-.351-.176-.82.059-1.113.293-.293.703-.41 1.113-.293l.938.352v-2.461c0-.469-.235-.88-.704-1.055h-.058a1.087 1.087 0 0 0-1.23.234L69.595 78.672z"/><path fill-rule="evenodd" d="M83.246 78.676c-.527 0-.938-.41-.938-.996v-6.621c0-.528.41-.938.938-.938.586 0 .996.41.996.938v6.62c0 .587-.41.997-.996.997zM18.102 53.953c-.117 0-.293 0-.41-.059-.528-.234-.703-.82-.469-1.347l4.57-9.14-4.746-6.563c-.234-.293-.234-.645-.117-.938l3.574-9.668-1.582-23.082c0-.527.41-.996.938-1.055.527 0 .996.41 1.054.938l1.582 23.316c0 .117-.058.293-.058.41l-3.516 9.375 4.746 6.621c.235.293.235.703.118.996l-4.805 9.668a.967.967 0 0 1-.879.528zM56.121 56.355c-2.285 0-4.453-.469-6.445-1.348-.469-.234-.703-.82-.469-1.289s.762-.703 1.29-.469a14.016 14.016 0 0 0 5.624 1.172c1.875 0 3.809-.41 5.566-1.172.47-.234 1.055 0 1.29.47.175.468 0 1.054-.528 1.288-1.933.88-4.16 1.348-6.328 1.348zm8.79-3.047c-.294 0-.587-.117-.763-.351-.351-.41-.293-1.055.118-1.348a13.192 13.192 0 0 0 4.98-10.31c0-.527-.059-1.112-.117-1.698-.059-.528.351-.996.879-1.055.527-.059.996.352 1.054.879.06.586.118 1.23.118 1.875 0 4.629-2.051 8.906-5.684 11.832a1.13 1.13 0 0 1-.586.176zm-17.634 0a.99.99 0 0 1-.586-.176c-3.633-2.93-5.742-7.207-5.742-11.832 0-.644.059-1.289.117-1.875a1 1 0 0 1 1.113-.879c.528.059.938.528.88 1.055-.06.586-.118 1.172-.118 1.7 0 3.984 1.817 7.792 4.922 10.308.469.293.527.938.176 1.348-.176.234-.469.352-.762.352zm22.38-14.82c-.411 0-.821-.293-.938-.703-1.465-5.45-6.446-9.434-12.066-9.668a.99.99 0 0 1-.586-.176.99.99 0 0 1-.586.176c-5.625.234-10.602 4.219-12.066 9.668a1.05 1.05 0 0 1-1.23.703c-.528-.176-.821-.703-.645-1.23 1.699-6.27 7.441-10.836 13.883-11.07.234 0 .468.058.644.234.176-.176.41-.234.645-.234 6.504.234 12.184 4.804 13.883 11.07.176.527-.117 1.054-.645 1.23h-.293z"/><path fill-rule="evenodd" d="M45.695 58.23h-.293c-.527-.176-.82-.762-.644-1.23l10.425-31.985c.176-.527.704-.82 1.231-.644.469.176.762.762.586 1.23L46.633 57.585c-.117.41-.527.645-.938.645z"/><path fill-rule="evenodd" d="M66.434 58.23a.945.945 0 0 1-.527-.176L38.665 38.312c-.41-.293-.528-.879-.176-1.347.293-.47.879-.528 1.348-.235l27.242 19.742c.41.352.527.938.234 1.406a1.192 1.192 0 0 1-.879.352z"/><path fill-rule="evenodd" d="M45.695 58.23c-.293 0-.586-.117-.82-.41-.293-.41-.176-1.055.234-1.348L69.89 38.488H39.253c-.527 0-.996-.41-.996-.937 0-.586.469-.996.996-.996h33.625a.95.95 0 0 1 .938.703c.175.41 0 .82-.352 1.054L46.28 58.054a1.13 1.13 0 0 1-.586.176z"/><path fill-rule="evenodd" d="M66.492 58.23c-.41 0-.82-.234-.938-.645L55.189 25.601a.982.982 0 0 1 .585-1.23c.528-.176 1.055.117 1.23.644l10.368 31.926a.982.982 0 0 1-.586 1.231c-.117.059-.234.059-.293.059z"/></svg>