<?xml version="1.0" encoding="UTF-8"?>
<svg version="1.1" xmlns="http://www.w3.org/2000/svg" width="512" height="512">
<path d="M0 0 C1.26292736 -0.00445784 2.52585471 -0.00891569 3.82705259 -0.01350862 C5.22613495 -0.01341933 6.62521729 -0.01322949 8.02429962 -0.01294994 C9.5125286 -0.01625044 11.00075668 -0.0199764 12.48898363 -0.02409142 C16.57995999 -0.03409854 20.67092167 -0.03782614 24.76190853 -0.04048073 C29.17384144 -0.04438764 33.58576278 -0.05396574 37.99768829 -0.0626936 C48.65352547 -0.08244755 59.30936358 -0.09252307 69.96521449 -0.10142139 C74.98536284 -0.10580622 80.00551014 -0.11117254 85.02565765 -0.11641026 C101.71760336 -0.1334218 118.40954842 -0.14791533 135.10150146 -0.155159 C139.43225353 -0.15706884 143.76300559 -0.15898918 148.09375763 -0.16094494 C149.17012263 -0.16142868 150.24648764 -0.16191242 151.35546976 -0.16241082 C168.78662428 -0.17070873 186.21771011 -0.19604197 203.64883465 -0.22852562 C221.55184355 -0.26161616 239.45481758 -0.27960958 257.35785723 -0.28280324 C267.40694723 -0.28496653 277.45593709 -0.29368871 287.50499725 -0.31926441 C296.06439759 -0.34099869 304.62367346 -0.34900842 313.18309826 -0.33929763 C317.54726509 -0.33476078 321.91117527 -0.33660319 326.2753067 -0.35605907 C330.27778135 -0.37374787 334.27981318 -0.37264715 338.2822929 -0.35716178 C339.72315125 -0.35479433 341.16404073 -0.35906409 342.60485166 -0.37099043 C359.98087835 -0.50580497 374.78628283 4.68799421 387.4824295 16.72015858 C397.90764327 27.73346133 404.0272747 41.43968232 404.1386795 56.61468983 C404.14770798 57.3905695 404.15673645 58.16644917 404.16603851 58.96584034 C404.18043835 60.59183415 404.18940192 62.21788456 404.19312286 63.84393787 C404.20510855 66.32644318 404.25446236 68.80652894 404.30469513 71.28851795 C404.31415173 72.87639657 404.32139041 74.46429027 404.3261795 76.05218983 C404.34571182 76.78874302 404.36524414 77.52529621 404.38536835 78.2841692 C404.35158207 82.14518187 403.87997217 83.98344855 401.5503006 87.10883045 C398.53743878 89.30173286 397.34079894 89.73462639 393.6855545 89.62250233 C392.75420685 89.60638905 391.82285919 89.59027576 390.86328888 89.5736742 C389.90358185 89.53177967 388.94387482 89.48988514 387.95508575 89.44672108 C386.97604279 89.42416248 385.99699982 89.40160389 384.98828888 89.3783617 C382.57981121 89.31961834 380.17449498 89.23754237 377.76758575 89.13422108 C378.49883483 94.23337757 379.76897402 96.51609395 383.83008575 99.73968983 C385.46306894 100.95121538 387.10944976 102.14485521 388.76758575 103.32172108 C390.41854428 104.5164937 392.06460769 105.71806724 393.70508575 106.92718983 C394.43598419 107.44821278 395.16688263 107.96923573 395.9199295 108.50604725 C398.79668091 111.04107039 399.65180987 113.24660595 400.14258575 117.00922108 C399.6776696 120.8835224 398.35912184 123.30321173 395.76758575 126.13422108 C392.8442122 128.30034381 389.7422637 130.09074702 386.58008575 131.88422108 C384.93822374 132.83296551 383.29876431 133.78588396 381.662117 134.74359608 C380.93871124 135.15577381 380.21530548 135.56795155 379.46997833 135.99261951 C377.61083792 137.03622909 377.61083792 137.03622909 376.76758575 139.13422108 C377.46239044 139.36625233 378.15719513 139.59828358 378.8730545 139.83734608 C382.34518297 141.39300957 385.12974484 143.52742957 388.08008575 145.88422108 C389.22683731 146.78575123 390.37397224 147.68679394 391.521492 148.58734608 C392.35124542 149.24186756 392.35124542 149.24186756 393.19776154 149.9096117 C395.87538445 151.99840743 398.62479856 153.98901352 401.37696075 155.97797108 C402.76758575 157.13422108 402.76758575 157.13422108 403.76758575 159.13422108 C403.86360294 162.03168296 403.89767802 164.90504102 403.88784027 167.80270863 C403.88912191 169.16509484 403.88912191 169.16509484 403.89042944 170.555004 C403.89208445 173.61674839 403.8865625 176.67843872 403.88111115 179.74017811 C403.88082925 181.9276374 403.88098705 184.1150968 403.88155365 186.30255604 C403.88184154 192.2568014 403.87594614 198.21102677 403.86897969 204.16526747 C403.86274478 210.38195826 403.86214225 216.59864947 403.86095428 222.8153429 C403.85819545 233.25480967 403.85194162 243.69426956 403.84302521 254.1337328 C403.83384976 264.88763867 403.82676958 275.64154255 403.8225174 286.39545155 C403.82212331 287.3893329 403.82212331 287.3893329 403.82172126 288.40329267 C403.82041625 291.72721521 403.81915479 295.05113776 403.81790936 298.37506032 C403.80744589 325.96145237 403.78984722 353.54783621 403.76758575 381.13422108 C405.63169098 381.33894032 405.63169098 381.33894032 407.5334549 381.5477953 C411.77807783 382.01394708 415.38381751 383.39829859 419.20508575 385.25922108 C420.18275909 385.72835926 420.18275909 385.72835926 421.18018341 386.20697498 C438.20915249 394.6432286 449.2836691 408.62194177 455.76758575 426.13422108 C460.98522656 443.00341786 458.72802645 462.3603417 450.79737091 477.91449451 C442.18554089 493.73571913 428.73457876 504.39067738 411.76758575 510.13422108 C404.66808719 512.18878711 397.8601409 512.42199114 390.50423431 512.40164661 C389.29360736 512.40617773 388.08298041 512.41070884 386.83566779 512.41537726 C383.49669127 512.42580437 380.15793114 512.42735453 376.81895387 512.42498851 C373.20938811 512.42457869 369.59985391 512.43563525 365.99030304 512.44510365 C358.92621093 512.46167926 351.86215221 512.46721164 344.79804228 512.4683284 C339.05228132 512.46928057 333.30653133 512.47339926 327.56077385 512.47972965 C311.24961496 512.49733315 294.93848234 512.50656999 278.62731389 512.5050687 C277.74894296 512.50498879 276.87057203 512.50490888 275.9655838 512.50482655 C275.08613307 512.50474478 274.20668235 512.50466302 273.3005816 512.50457878 C259.05510864 512.50376627 244.80974151 512.5228975 230.56429914 512.55110328 C215.91671835 512.57987506 201.2691891 512.59364119 186.62157935 512.59191573 C178.40631016 512.59125328 170.19115192 512.59668164 161.97590828 512.61827183 C154.98007574 512.63654031 147.98440442 512.64078473 140.98855827 512.62725298 C137.42420444 512.62075157 133.86015938 512.62050255 130.29583549 512.63795948 C108.21107872 512.7392778 89.90908933 511.51037796 73.11133575 495.53656483 C56.2829226 478.28744135 49.67617236 456.01056501 49.57471466 432.33710194 C49.56244843 430.74068615 49.56244843 430.74068615 49.54993439 429.11201954 C49.52522034 425.60770689 49.50860643 422.10343416 49.49414825 418.59906483 C49.48882458 417.39939138 49.4835009 416.19971794 49.4780159 414.96369076 C49.45135399 408.62202183 49.431951 402.28037218 49.4174881 395.93866444 C49.40411537 390.69206915 49.37619081 385.4458597 49.33545685 380.19940662 C49.28621855 373.85652678 49.26137914 367.51399844 49.25426102 361.17093563 C49.24754133 358.75598335 49.23230083 356.34103915 49.20837021 353.9261961 C49.1768121 350.55102681 49.17666764 347.17722328 49.18408966 343.80194569 C49.16768433 342.80593342 49.15127899 341.80992115 49.13437653 340.78372669 C49.17491316 336.28251622 49.2626732 333.14886087 52.18393707 329.58223438 C53.03654114 328.77438999 53.8891452 327.9665456 54.76758575 327.13422108 C55.4018045 326.5283617 56.03602325 325.92250233 56.68946075 325.29828358 C57.292742 324.79039295 57.89602325 324.28250233 58.51758575 323.75922108 C59.1930545 323.18301014 59.86852325 322.6067992 60.56446075 322.01312733 C61.291492 321.39308826 62.01852325 320.7730492 62.76758575 320.13422108 C64.43753109 318.65875695 66.1042342 317.17961468 67.76758575 315.69672108 C68.53071075 315.01738514 69.29383575 314.3380492 70.08008575 313.63812733 C70.91539825 312.89369373 70.91539825 312.89369373 71.76758575 312.13422108 C65.79544662 307.73604758 59.81909937 303.41808771 53.5449295 299.45843983 C51.76758575 298.13422108 51.76758575 298.13422108 49.76758575 295.13422108 C49.5214901 292.21944618 49.5214901 292.21944618 49.52707672 288.58534718 C49.52536787 287.91716487 49.52365902 287.24898256 49.52189839 286.5605523 C49.51859895 284.31717787 49.52961444 282.07410124 49.54053497 279.83075428 C49.54109899 278.22442094 49.54078271 276.61808708 49.53964996 275.01175404 C49.53907508 270.64632345 49.55085135 266.28100231 49.56479788 261.9155972 C49.57728261 257.35519192 49.57847395 252.79478425 49.58084869 248.23436451 C49.58707011 239.59648574 49.60348987 230.95865747 49.62354767 222.32080096 C49.64588611 212.48779376 49.65689493 202.65478417 49.66693854 192.82175791 C49.68785552 172.59255076 49.72304434 152.3633891 49.76758575 132.13422108 C48.99021561 132.14310352 48.21284546 132.15198597 47.41191864 132.16113758 C40.04259189 132.24168806 32.67348223 132.30238901 25.30382824 132.34146976 C21.51608247 132.36223792 17.72870412 132.39035461 13.94116974 132.43597889 C10.27770502 132.4798264 6.61459099 132.50343891 2.95088387 132.51373005 C1.56158499 132.52105243 0.17230269 132.53534894 -1.21684456 132.5571413 C-15.34329802 132.76969386 -25.54617437 129.50297933 -36.23241425 120.13422108 C-48.28613837 107.93220861 -54.51697429 91.65308789 -54.70043182 74.64618397 C-54.69036102 73.56973621 -54.68029022 72.49328846 -54.66991425 71.38422108 C-54.6630661 70.25041004 -54.65621796 69.11659901 -54.64916229 67.94843006 C-54.24083791 46.47851996 -46.02603971 26.75406428 -30.478508 11.72406483 C-21.95813503 4.47595255 -11.14068879 0.0182685 0 0 Z M51.76758575 20.13422108 C52.25137192 20.88591068 52.73515808 21.63760029 53.23360443 22.41206837 C53.86654922 23.40004917 54.49949402 24.38802998 55.15161896 25.40594959 C56.0938607 26.8737965 56.0938607 26.8737965 57.05513763 28.37129688 C62.35338007 36.9196681 65.06825198 46.35241728 67.08008575 56.13422108 C67.23952667 56.90371082 67.39896759 57.67320057 67.56324005 58.46600819 C70.2234096 72.62374451 69.89181996 87.11155613 69.81421661 101.45258045 C69.80741105 103.45326012 69.80120257 105.4539419 69.79553986 107.45462513 C69.78317594 111.73181998 69.76859915 116.0089997 69.75285912 120.28618336 C69.72998156 127.05230846 69.72445825 133.81837855 69.72353363 140.58453846 C69.72335186 141.73020519 69.7231701 142.87587192 69.72298282 144.05625582 C69.72253372 148.77143513 69.72261467 153.48661434 69.72281826 158.20179367 C69.72255307 171.55870528 69.70553587 184.91514791 69.64087677 198.27191639 C69.5894695 208.91575552 69.57321023 219.5589908 69.59833819 230.20293379 C69.61027818 235.82665081 69.6043596 241.44907556 69.55565453 247.07262135 C69.51029327 252.35274444 69.51148534 257.63080424 69.54840088 262.91097355 C69.55366932 264.84637154 69.54185637 266.78190363 69.51161385 268.71707249 C69.00228771 278.86239447 69.00228771 278.86239447 72.91217995 287.77005482 C75.47064671 289.59546585 77.89720247 290.87253527 80.76758575 292.13422108 C82.32360601 293.09441348 83.86789633 294.07423686 85.39258575 295.08343983 C87.60154278 296.47041373 89.81396356 297.85017837 92.037117 299.2142992 C92.75254669 299.66611561 93.46797638 300.11793201 94.20508575 300.58343983 C95.16221466 301.17644886 95.16221466 301.17644886 96.1386795 301.78143787 C98.09329492 303.40471785 98.85663999 304.77299804 99.76758575 307.13422108 C100.09319759 311.61138385 100.0229521 315.18732998 97.76758575 319.13422108 C96.44058455 319.81340442 95.10648399 320.47880233 93.76758575 321.13422108 C92.12759138 322.43111381 92.12759138 322.43111381 90.59571075 323.92718983 C90.01716339 324.472141 89.43861603 325.01709217 88.84253693 325.57855701 C87.9391861 326.44142323 87.9391861 326.44142323 87.01758575 327.32172108 C85.7697068 328.49837147 84.52101342 329.67415876 83.271492 330.84906483 C82.37067902 331.69767078 82.37067902 331.69767078 81.45166779 332.5634203 C78.73421048 335.09808546 75.93816779 337.53738708 73.1230545 339.96234608 C72.31514757 340.6608247 71.52276322 341.37904361 70.76758575 342.13422108 C70.65088591 345.1492271 70.59954724 348.14161186 70.5905838 351.15765858 C70.5840126 352.10585468 70.57744141 353.05405079 70.57067108 354.03098011 C70.55085925 357.19039453 70.53924897 360.34976089 70.5293045 363.50922108 C70.52522898 364.59034168 70.52115345 365.67146229 70.51695442 366.78534412 C70.49604561 372.52370483 70.48177309 378.26204139 70.47241974 384.00043201 C70.46143362 389.89201399 70.42713898 395.78321004 70.38724804 401.67465687 C70.36090043 406.23045957 70.3527112 410.78617363 70.34913826 415.34204578 C70.34430741 417.51065096 70.33279524 419.67925312 70.31410027 421.84778309 C70.13719835 443.75566979 72.49813436 464.54910627 88.5136795 481.07953358 C91.71591496 483.99872916 94.86295713 486.25816904 98.76758575 488.13422108 C99.40696075 488.45133045 100.04633575 488.76843983 100.70508575 489.09515858 C108.54196774 492.33084091 118.75651952 492.67951181 126.84571075 490.18500233 C131.63217421 487.91358179 135.30259363 485.17671188 138.76758575 481.13422108 C139.23551544 480.66758045 139.70344513 480.20093983 140.1855545 479.72015858 C147.19667063 472.40264406 151.46055479 462.12721731 152.76758575 452.13422108 C152.90035919 451.14937733 153.03313263 450.16453358 153.1699295 449.14984608 C154.8254162 433.59943176 151.39943573 420.44291273 141.76758575 408.13422108 C137.88176904 404.09100419 133.73781303 401.51097557 128.11914825 400.79828358 C121.72463384 400.70667162 117.87513893 401.17326147 112.76758575 405.13422108 C107.93906294 411.36047418 107.12530067 416.46183378 107.76758575 424.13422108 C109.41694412 429.42952951 111.57773355 432.53961684 115.76758575 436.13422108 C119.21169902 437.43167804 119.21169902 437.43167804 122.89258575 438.19672108 C129.29220583 439.66471004 129.29220583 439.66471004 131.66602325 442.00922108 C133.40046328 445.3550912 133.47691603 448.51592017 132.76758575 452.13422108 C131.08008575 455.13422108 131.08008575 455.13422108 127.76758575 457.13422108 C120.40416118 458.14986585 113.34381584 457.70649421 106.76758575 454.13422108 C106.01735138 453.73203358 105.267117 453.32984608 104.49414825 452.91547108 C95.95396846 447.80838682 91.67419158 440.46595556 88.76758575 431.13422108 C85.97454599 419.96206202 87.65999408 408.41486406 92.7480545 398.15765858 C97.61028662 390.41777888 105.79188308 383.97245425 114.62300408 381.55103898 C118.95768772 380.70855591 123.34500715 380.84738856 127.74571991 380.85574818 C128.84200936 380.84995577 129.93829882 380.84416337 131.06780916 380.83819544 C134.73591242 380.82120995 138.40388973 380.81832014 142.07202911 380.81537342 C144.70357318 380.80607426 147.3351143 380.79590561 149.96665192 380.78493214 C155.62943173 380.76268974 161.29219356 380.74765833 166.95500755 380.73756504 C175.14241573 380.72296148 183.32976124 380.69741997 191.51713259 380.66923375 C204.8015281 380.62379621 218.08593265 380.58716886 231.37036896 380.55609608 C244.27272884 380.52589809 257.17506664 380.49154208 270.07740021 380.45160389 C270.87308896 380.44914234 271.66877772 380.44668079 272.48857825 380.44414465 C276.48043105 380.43176981 280.47228359 380.41931332 284.464136 380.40681624 C317.56525596 380.30329394 350.66640011 380.21407569 383.76758575 380.13422108 C384.1885547 352.84845932 384.50571683 325.56318589 384.70020485 298.27482796 C384.79292145 285.60339931 384.91925636 272.93399116 385.12549591 260.26385975 C385.30522633 249.21700091 385.42110575 238.17160538 385.46117866 227.12332505 C385.48459726 221.27539037 385.53938428 215.43164069 385.67072678 209.58505154 C385.79352975 204.07359618 385.83048484 198.56801907 385.80352402 193.05532551 C385.80845011 191.03992564 385.84392424 189.02431621 385.9132843 187.01010418 C386.44346899 176.34111315 386.44346899 176.34111315 381.98653173 167.04892039 C377.66133885 163.16943974 372.8947348 160.1634664 367.84247756 157.3240093 C365.27232241 155.85022627 362.92741489 154.14914404 360.58008575 152.34515858 C359.925242 151.85918201 359.27039825 151.37320545 358.59571075 150.87250233 C357.9924295 150.42261951 357.38914825 149.9727367 356.76758575 149.50922108 C355.76985138 148.77638905 355.76985138 148.77638905 354.75196075 148.02875233 C351.87121205 145.87990116 349.77917998 144.15161242 347.76758575 141.13422108 C347.10066874 134.2427453 347.10066874 134.2427453 349.21289825 130.73187733 C352.7167638 127.16907827 356.70473047 124.92324345 361.01758575 122.44672108 C362.67246843 121.49110247 364.32374378 120.52919961 365.97071075 119.56000233 C366.69935333 119.14145985 367.42799591 118.72291737 368.17871857 118.29169178 C368.70304474 117.90972645 369.22737091 117.52776112 369.76758575 117.13422108 C369.76758575 116.47422108 369.76758575 115.81422108 369.76758575 115.13422108 C367.84866371 113.46118048 367.84866371 113.46118048 365.45508575 111.75922108 C362.30663284 109.45745357 359.79630768 107.48758958 357.76758575 104.13422108 C357.19648779 100.0040539 357.25237593 95.88377314 357.26660919 91.71698475 C357.2675815 89.70551781 357.22594699 87.69787173 357.18164825 85.68695545 C357.17907013 84.41271717 357.176492 83.13847889 357.17383575 81.82562733 C357.16674591 80.66232899 357.15965607 79.49903065 357.15235138 78.30048084 C357.95965403 74.14575543 359.43771195 72.68023399 362.76758575 70.13422108 C365.26294708 69.47479725 365.26294708 69.47479725 367.849617 69.42718983 C368.78096466 69.39818592 369.71231232 69.36918201 370.67188263 69.3392992 C371.63158966 69.33349842 372.59129669 69.32769764 373.58008575 69.32172108 C374.55912872 69.29658436 375.53817169 69.27144764 376.54688263 69.2455492 C378.95418772 69.18683444 381.35968137 69.15044128 383.76758575 69.13422108 C383.96853874 55.15167165 382.20609856 43.14492718 372.33008575 32.50922108 C360.30839993 21.3671708 348.49909062 19.9727107 332.68213654 20.01396656 C331.4788203 20.01311214 330.27550406 20.01225771 329.03572369 20.01137739 C325.71311516 20.01001957 322.3905661 20.01312771 319.06796479 20.01815546 C315.47843318 20.02248702 311.8889033 20.02101161 308.29936981 20.02025318 C302.08602212 20.01972966 295.87268495 20.02285851 289.6593399 20.02849102 C280.67596396 20.03662929 271.69259309 20.03922363 262.70921385 20.04047901 C248.13312791 20.04266587 233.55704756 20.04931604 218.98096466 20.05878162 C204.82438942 20.0679652 190.66781571 20.07504141 176.5112381 20.07928944 C175.63815018 20.07955216 174.76506227 20.07981488 173.86551714 20.08008557 C169.48534935 20.08139064 165.10518154 20.08265434 160.72501373 20.08389747 C124.40586712 20.09425869 88.08672687 20.11186706 51.76758575 20.13422108 Z M-21.1269455 32.41937733 C-25.12004229 37.5681756 -27.73632153 43.1611862 -30.23241425 49.13422108 C-30.59464081 49.99402576 -30.95686737 50.85383045 -31.3300705 51.73968983 C-35.68058604 64.46747715 -35.05662462 82.07448604 -29.23241425 94.13422108 C-24.90524944 101.84136023 -19.7034778 108.03108406 -11.23241425 111.13422108 C-5.63438067 112.19605171 -0.84250318 111.87808667 4.20508575 109.13422108 C8.22517577 106.1790009 10.46180367 102.9492925 11.76758575 98.13422108 C12.75485096 91.07938845 12.12908104 84.92211733 7.76758575 79.13422108 C3.28570659 74.98848285 -1.68153174 74.18928548 -7.525383 73.13812733 C-10.23241425 72.13422108 -10.23241425 72.13422108 -12.09960175 69.82562733 C-13.283881 67.01194316 -13.53561649 65.50694934 -13.16991425 62.50922108 C-13.09643768 61.75383045 -13.02296112 60.99843983 -12.947258 60.22015858 C-11.96602311 57.35688301 -10.88952051 56.55846564 -8.23241425 55.13422108 C-0.92089612 54.14774641 6.24084156 54.58882917 12.76758575 58.13422108 C13.51782013 58.53640858 14.2680545 58.93859608 15.04102325 59.35297108 C24.30404591 64.89232017 28.1525137 72.90497334 31.3261795 82.89203358 C33.25947173 92.71247374 31.88995066 102.76712636 28.76758575 112.13422108 C35.69758575 112.13422108 42.62758575 112.13422108 49.76758575 112.13422108 C51.63623979 68.69970635 51.63623979 68.69970635 32.958992 31.23187733 C28.12474462 26.63107448 23.10171959 24.13787566 16.76758575 22.13422108 C16.17719513 21.94343983 15.5868045 21.75265858 14.97852325 21.55609608 C0.54810275 18.80258828 -10.97026729 21.61554795 -21.1269455 32.41937733 Z M162.76758575 400.13422108 C164.51384202 404.54060618 166.45050385 408.82638063 168.4511795 413.12250233 C169.49436469 415.50913669 170.44272166 417.88347144 171.34986115 420.3224535 C171.61642014 421.03777744 171.88297913 421.75310139 172.15761566 422.49010181 C172.35890579 423.03266117 172.56019592 423.57522053 172.76758575 424.13422108 C174.01579463 424.14056899 174.01579463 424.14056899 175.28921986 424.14704514 C195.51907242 424.2502635 215.74888961 424.35888797 235.97868061 424.47356033 C245.76157492 424.52888363 255.54447288 424.58236418 265.32740021 424.63153553 C273.85228335 424.67438829 282.37713973 424.72066907 290.90198153 424.77109963 C295.41753116 424.79769174 299.93307552 424.82254463 304.44865608 424.8432951 C308.69621245 424.86286801 312.94371794 424.88701379 317.19122887 424.91471195 C318.75252738 424.92407891 320.31383706 424.93175547 321.87515259 424.93764019 C324.00238297 424.9459074 326.12949006 424.96018578 328.25667572 424.97600269 C330.04449321 424.98568152 330.04449321 424.98568152 331.86842823 424.99555588 C334.76758575 425.13422108 334.76758575 425.13422108 337.76758575 426.13422108 C338.75034163 429.0824887 338.901733 431.06074611 338.89258575 434.13422108 C338.89516388 435.00047108 338.897742 435.86672108 338.90039825 436.75922108 C338.76758575 439.13422108 338.76758575 439.13422108 337.76758575 442.13422108 C334.41267108 443.25252597 331.87603921 443.27020875 328.33933258 443.28571033 C327.68410649 443.28994275 327.02888041 443.29417516 326.35379899 443.29853582 C324.15432328 443.3115708 321.95488383 443.31758852 319.75537872 443.3236742 C318.18022184 443.33161571 316.60506716 443.3400036 315.02991486 443.34880543 C311.63648744 443.36686796 308.24306487 443.38188139 304.84961319 443.39458179 C299.48907866 443.41478147 294.1285987 443.44243522 288.76810455 443.47125721 C276.42412959 443.53648424 264.08011429 443.59193354 251.73609161 443.64724445 C240.41901674 443.69804312 229.10196173 443.75087847 217.78493607 443.81176996 C212.45053578 443.84018604 207.11614213 443.86375731 201.78170371 443.88369465 C198.47113184 443.89704095 195.16059066 443.91445502 191.85004425 443.93300533 C190.30886482 443.94078893 188.76767561 443.94684635 187.22648239 443.95109844 C185.13155935 443.95710652 183.03675707 443.96913523 180.94187164 443.98273182 C179.17925649 443.99046242 179.17925649 443.99046242 177.38103294 443.99834919 C174.84061506 443.83804493 174.84061506 443.83804493 173.76758575 445.13422108 C173.45377183 447.17613195 173.14569036 449.21910844 172.86841583 451.26630116 C171.14763057 463.80037169 168.02282414 474.56366353 161.5918045 485.55218983 C161.22293121 486.18975208 160.85405792 486.82731434 160.47400665 487.48419666 C159.57537704 489.03624279 158.67198183 490.58552805 157.76758575 492.13422108 C187.37353279 492.17989901 216.97947815 492.21526763 246.58545305 492.23635174 C250.08496609 492.23885299 253.58447907 492.24144165 257.083992 492.24408436 C258.1289762 492.24487129 258.1289762 492.24487129 259.19507119 492.24567412 C270.45813091 492.25436401 281.72117011 492.27012615 292.98421767 492.28852667 C304.55108171 492.30726518 316.11793381 492.31819655 327.68481231 492.32239807 C334.17755505 492.32500182 340.67025131 492.33110734 347.16297913 492.34568119 C353.27945526 492.35929871 359.39586595 492.36343528 365.5123558 492.36043644 C367.75199871 492.36098474 369.9916439 492.36493722 372.23127365 492.37263203 C398.84950132 492.49611146 398.84950132 492.49611146 421.76758575 480.13422108 C422.37473419 479.6211742 422.98188263 479.10812733 423.6074295 478.57953358 C431.35993931 471.48861651 436.53458977 461.44708893 437.10352325 450.89984608 C437.41074137 435.53050038 433.66857644 424.37969261 423.08008575 412.94672108 C411.49003808 401.82293968 397.3193138 399.96233995 381.99156952 400.01396656 C380.57733455 400.01268492 380.57733455 400.01268492 379.13452917 400.01137739 C375.99779063 400.00973963 372.86110642 400.01521591 369.72437286 400.02069569 C367.46691642 400.02097795 365.20945987 400.02081905 362.95200348 400.02025318 C356.83908695 400.01996675 350.72619011 400.02583868 344.61327815 400.03282714 C338.21912279 400.03908622 331.82496697 400.0396665 325.43080902 400.04085255 C314.70362697 400.04360565 303.97645351 400.04984823 293.24927521 400.05878162 C282.20370266 400.06797057 271.15813206 400.07504414 260.11255646 400.07928944 C259.43089898 400.07955216 258.74924151 400.07981488 258.04692774 400.08008557 C254.62701115 400.08139067 251.20709454 400.08265436 247.78717792 400.08389747 C219.44730891 400.09425225 191.10744772 400.11192967 162.76758575 400.13422108 Z " fill="#000000" transform="translate(54.23241424560547,-0.13422107696533203)"/>
<path d="M0 0 C0.79941171 -0.00523668 1.59882342 -0.01047336 2.42245972 -0.01586872 C5.11015064 -0.03091074 7.7976519 -0.03157479 10.48538208 -0.03224182 C12.40872521 -0.03986046 14.33206529 -0.04828745 16.25540161 -0.0574646 C21.48680364 -0.07944508 26.71814721 -0.08821322 31.94959021 -0.09329104 C35.21625942 -0.09693029 38.48291322 -0.10316808 41.74957657 -0.11029243 C53.1410108 -0.13479884 64.5323994 -0.14784149 75.92385864 -0.15138245 C86.55021986 -0.15501909 97.17629248 -0.18492075 107.80256546 -0.22678703 C116.91941156 -0.26144998 126.03616185 -0.27693019 135.15307343 -0.27762848 C140.60103913 -0.27842263 146.04871099 -0.2872247 151.49660873 -0.31562614 C156.62011443 -0.34173842 161.74308125 -0.34405025 166.86662292 -0.3279705 C168.74800412 -0.32615058 170.62941581 -0.33289553 172.51073074 -0.34878922 C175.07778341 -0.36915547 177.64293381 -0.35875498 180.20996094 -0.34057617 C180.95597624 -0.35377614 181.70199154 -0.36697611 182.47061336 -0.38057607 C186.36279224 -0.31754047 188.08053 0.15442559 191.17083931 2.59773159 C193.76947624 5.97212786 194.23196411 8.02867342 194.23196411 12.27415466 C192.71679784 16.2893453 191.82643882 17.87783819 188.23196411 20.27415466 C185.60751648 20.47179895 183.08889342 20.55241338 180.46392822 20.5415802 C179.66451651 20.54611131 178.86510481 20.55064243 178.0414685 20.55531085 C175.35376951 20.56800509 172.66627186 20.56633125 169.97854614 20.56468201 C168.05520363 20.57066413 166.13186353 20.57746894 164.20852661 20.58503723 C158.97711763 20.6027367 153.74577404 20.60739427 148.51433802 20.6086688 C144.15041531 20.61056568 139.78650791 20.61792077 135.42259109 20.62501299 C125.12840939 20.64130956 114.83426269 20.64618079 104.54006958 20.64476013 C93.91374918 20.64355837 83.28763178 20.66466426 72.66136277 20.69624746 C63.54451703 20.72238085 54.42773771 20.73312866 45.31085479 20.73184931 C39.86293717 20.73133881 34.41519988 20.7370705 28.96731949 20.75820541 C23.84386777 20.77753831 18.72076931 20.77774618 13.5973053 20.76317215 C11.71593079 20.76107679 9.83453447 20.76582802 7.95319748 20.77789307 C5.38636949 20.79328908 2.82076814 20.78407542 0.25396729 20.76863098 C-0.49204801 20.77891811 -1.23806331 20.78920523 -2.00668514 20.79980409 C-5.63812833 20.75145713 -7.63260473 20.3611083 -10.71862984 18.3797245 C-13.58087871 15.43903596 -13.67422562 13.42100582 -13.90866089 9.46165466 C-13.71005906 6.37229294 -12.7555093 4.61653405 -10.76803589 2.27415466 C-7.07448668 -0.18821147 -4.27309683 -0.01375111 0 0 Z " fill="#000000" transform="translate(192.76803588867188,301.72584533691406)"/>
<path d="M0 0 C0.79941171 -0.00523668 1.59882342 -0.01047336 2.42245972 -0.01586872 C5.11015064 -0.03091074 7.7976519 -0.03157479 10.48538208 -0.03224182 C12.40872521 -0.03986046 14.33206529 -0.04828745 16.25540161 -0.0574646 C21.48680364 -0.07944508 26.71814721 -0.08821322 31.94959021 -0.09329104 C35.21625942 -0.09693029 38.48291322 -0.10316808 41.74957657 -0.11029243 C53.1410108 -0.13479884 64.5323994 -0.14784149 75.92385864 -0.15138245 C86.55021986 -0.15501909 97.17629248 -0.18492075 107.80256546 -0.22678703 C116.91941156 -0.26144998 126.03616185 -0.27693019 135.15307343 -0.27762848 C140.60103913 -0.27842263 146.04871099 -0.2872247 151.49660873 -0.31562614 C156.62011443 -0.34173842 161.74308125 -0.34405025 166.86662292 -0.3279705 C168.74800412 -0.32615058 170.62941581 -0.33289553 172.51073074 -0.34878922 C175.07778341 -0.36915547 177.64293381 -0.35875498 180.20996094 -0.34057617 C180.95597624 -0.35377614 181.70199154 -0.36697611 182.47061336 -0.38057607 C186.36279224 -0.31754047 188.08053 0.15442559 191.17083931 2.59773159 C193.76947624 5.97212786 194.23196411 8.02867342 194.23196411 12.27415466 C192.71679784 16.2893453 191.82643882 17.87783819 188.23196411 20.27415466 C185.60751648 20.47179895 183.08889342 20.55241338 180.46392822 20.5415802 C179.66451651 20.54611131 178.86510481 20.55064243 178.0414685 20.55531085 C175.35376951 20.56800509 172.66627186 20.56633125 169.97854614 20.56468201 C168.05520363 20.57066413 166.13186353 20.57746894 164.20852661 20.58503723 C158.97711763 20.6027367 153.74577404 20.60739427 148.51433802 20.6086688 C144.15041531 20.61056568 139.78650791 20.61792077 135.42259109 20.62501299 C125.12840939 20.64130956 114.83426269 20.64618079 104.54006958 20.64476013 C93.91374918 20.64355837 83.28763178 20.66466426 72.66136277 20.69624746 C63.54451703 20.72238085 54.42773771 20.73312866 45.31085479 20.73184931 C39.86293717 20.73133881 34.41519988 20.7370705 28.96731949 20.75820541 C23.84386777 20.77753831 18.72076931 20.77774618 13.5973053 20.76317215 C11.71593079 20.76107679 9.83453447 20.76582802 7.95319748 20.77789307 C5.38636949 20.79328908 2.82076814 20.78407542 0.25396729 20.76863098 C-0.49204801 20.77891811 -1.23806331 20.78920523 -2.00668514 20.79980409 C-5.63812833 20.75145713 -7.63260473 20.3611083 -10.71862984 18.3797245 C-13.58087871 15.43903596 -13.67422562 13.42100582 -13.90866089 9.46165466 C-13.71005906 6.37229294 -12.7555093 4.61653405 -10.76803589 2.27415466 C-7.07448668 -0.18821147 -4.27309683 -0.01375111 0 0 Z " fill="#000000" transform="translate(192.76803588867188,245.72584533691406)"/>
<path d="M0 0 C0.79941171 -0.00523668 1.59882342 -0.01047336 2.42245972 -0.01586872 C5.11015064 -0.03091074 7.7976519 -0.03157479 10.48538208 -0.03224182 C12.40872521 -0.03986046 14.33206529 -0.04828745 16.25540161 -0.0574646 C21.48680364 -0.07944508 26.71814721 -0.08821322 31.94959021 -0.09329104 C35.21625942 -0.09693029 38.48291322 -0.10316808 41.74957657 -0.11029243 C53.1410108 -0.13479884 64.5323994 -0.14784149 75.92385864 -0.15138245 C86.55021986 -0.15501909 97.17629248 -0.18492075 107.80256546 -0.22678703 C116.91941156 -0.26144998 126.03616185 -0.27693019 135.15307343 -0.27762848 C140.60103913 -0.27842263 146.04871099 -0.2872247 151.49660873 -0.31562614 C156.62011443 -0.34173842 161.74308125 -0.34405025 166.86662292 -0.3279705 C168.74800412 -0.32615058 170.62941581 -0.33289553 172.51073074 -0.34878922 C175.07778341 -0.36915547 177.64293381 -0.35875498 180.20996094 -0.34057617 C180.95597624 -0.35377614 181.70199154 -0.36697611 182.47061336 -0.38057607 C186.36279224 -0.31754047 188.08053 0.15442559 191.17083931 2.59773159 C193.76947624 5.97212786 194.23196411 8.02867342 194.23196411 12.27415466 C192.71679784 16.2893453 191.82643882 17.87783819 188.23196411 20.27415466 C185.60751648 20.47179895 183.08889342 20.55241338 180.46392822 20.5415802 C179.66451651 20.54611131 178.86510481 20.55064243 178.0414685 20.55531085 C175.35376951 20.56800509 172.66627186 20.56633125 169.97854614 20.56468201 C168.05520363 20.57066413 166.13186353 20.57746894 164.20852661 20.58503723 C158.97711763 20.6027367 153.74577404 20.60739427 148.51433802 20.6086688 C144.15041531 20.61056568 139.78650791 20.61792077 135.42259109 20.62501299 C125.12840939 20.64130956 114.83426269 20.64618079 104.54006958 20.64476013 C93.91374918 20.64355837 83.28763178 20.66466426 72.66136277 20.69624746 C63.54451703 20.72238085 54.42773771 20.73312866 45.31085479 20.73184931 C39.86293717 20.73133881 34.41519988 20.7370705 28.96731949 20.75820541 C23.84386777 20.77753831 18.72076931 20.77774618 13.5973053 20.76317215 C11.71593079 20.76107679 9.83453447 20.76582802 7.95319748 20.77789307 C5.38636949 20.79328908 2.82076814 20.78407542 0.25396729 20.76863098 C-0.49204801 20.77891811 -1.23806331 20.78920523 -2.00668514 20.79980409 C-5.63812833 20.75145713 -7.63260473 20.3611083 -10.71862984 18.3797245 C-13.58087871 15.43903596 -13.67422562 13.42100582 -13.90866089 9.46165466 C-13.71005906 6.37229294 -12.7555093 4.61653405 -10.76803589 2.27415466 C-7.07448668 -0.18821147 -4.27309683 -0.01375111 0 0 Z " fill="#000000" transform="translate(192.76803588867188,189.72584533691406)"/>
<path d="M0 0 C0.79941171 -0.00523668 1.59882342 -0.01047336 2.42245972 -0.01586872 C5.11015064 -0.03091074 7.7976519 -0.03157479 10.48538208 -0.03224182 C12.40872521 -0.03986046 14.33206529 -0.04828745 16.25540161 -0.0574646 C21.48680364 -0.07944508 26.71814721 -0.08821322 31.94959021 -0.09329104 C35.21625942 -0.09693029 38.48291322 -0.10316808 41.74957657 -0.11029243 C53.1410108 -0.13479884 64.5323994 -0.14784149 75.92385864 -0.15138245 C86.55021986 -0.15501909 97.17629248 -0.18492075 107.80256546 -0.22678703 C116.91941156 -0.26144998 126.03616185 -0.27693019 135.15307343 -0.27762848 C140.60103913 -0.27842263 146.04871099 -0.2872247 151.49660873 -0.31562614 C156.62011443 -0.34173842 161.74308125 -0.34405025 166.86662292 -0.3279705 C168.74800412 -0.32615058 170.62941581 -0.33289553 172.51073074 -0.34878922 C175.07778341 -0.36915547 177.64293381 -0.35875498 180.20996094 -0.34057617 C180.95597624 -0.35377614 181.70199154 -0.36697611 182.47061336 -0.38057607 C186.36279224 -0.31754047 188.08053 0.15442559 191.17083931 2.59773159 C193.76947624 5.97212786 194.23196411 8.02867342 194.23196411 12.27415466 C192.71679784 16.2893453 191.82643882 17.87783819 188.23196411 20.27415466 C185.60751648 20.47179895 183.08889342 20.55241338 180.46392822 20.5415802 C179.66451651 20.54611131 178.86510481 20.55064243 178.0414685 20.55531085 C175.35376951 20.56800509 172.66627186 20.56633125 169.97854614 20.56468201 C168.05520363 20.57066413 166.13186353 20.57746894 164.20852661 20.58503723 C158.97711763 20.6027367 153.74577404 20.60739427 148.51433802 20.6086688 C144.15041531 20.61056568 139.78650791 20.61792077 135.42259109 20.62501299 C125.12840939 20.64130956 114.83426269 20.64618079 104.54006958 20.64476013 C93.91374918 20.64355837 83.28763178 20.66466426 72.66136277 20.69624746 C63.54451703 20.72238085 54.42773771 20.73312866 45.31085479 20.73184931 C39.86293717 20.73133881 34.41519988 20.7370705 28.96731949 20.75820541 C23.84386777 20.77753831 18.72076931 20.77774618 13.5973053 20.76317215 C11.71593079 20.76107679 9.83453447 20.76582802 7.95319748 20.77789307 C5.38636949 20.79328908 2.82076814 20.78407542 0.25396729 20.76863098 C-0.49204801 20.77891811 -1.23806331 20.78920523 -2.00668514 20.79980409 C-5.63812833 20.75145713 -7.63260473 20.3611083 -10.71862984 18.3797245 C-13.58087871 15.43903596 -13.67422562 13.42100582 -13.90866089 9.46165466 C-13.71005906 6.37229294 -12.7555093 4.61653405 -10.76803589 2.27415466 C-7.07448668 -0.18821147 -4.27309683 -0.01375111 0 0 Z " fill="#000000" transform="translate(192.76803588867188,133.72584533691406)"/>
<path d="M0 0 C1.29542725 -0.01409912 2.59085449 -0.02819824 3.92553711 -0.04272461 C5.35400742 -0.03300387 6.78247426 -0.02276307 8.2109375 -0.01205444 C9.72079523 -0.01883234 11.23064469 -0.02773645 12.74047852 -0.03860474 C16.83563535 -0.06138473 20.93016185 -0.05256748 25.02532959 -0.03670931 C29.31247649 -0.02404343 33.59956971 -0.03579233 37.88671875 -0.04364014 C45.08603599 -0.05273472 52.28509671 -0.04075391 59.484375 -0.01693726 C67.80576637 0.0102738 76.12654522 0.0014595 84.44792175 -0.02606928 C91.59459168 -0.0487649 98.74107729 -0.05195827 105.88777161 -0.03887594 C110.15526366 -0.03108386 114.42246788 -0.03003297 118.68994141 -0.04655838 C122.70226692 -0.06101066 126.71380337 -0.05096855 130.7260437 -0.0220871 C132.19781179 -0.01548019 133.66964638 -0.01736735 135.14138794 -0.02840042 C137.15152604 -0.04207941 139.1618094 -0.02187707 141.171875 0 C142.2964209 0.00188513 143.4209668 0.00377026 144.57958984 0.00571251 C148.56505856 0.83984081 150.05961821 2.50841664 152.5859375 5.63491821 C153.79637646 9.79580215 153.87005652 11.88200282 152.3359375 15.94741821 C150.5859375 18.63491821 150.5859375 18.63491821 147.5859375 20.63491821 C144.8256855 20.89498043 144.8256855 20.89498043 141.41238403 20.90907288 C140.11970612 20.919048 138.8270282 20.92902313 137.49517822 20.93930054 C136.05944836 20.94019636 134.62371835 20.94085992 133.18798828 20.9413147 C131.6784321 20.94893482 130.16887981 20.95736206 128.65933228 20.96653748 C124.55599182 20.9885038 120.4527259 20.9972842 116.34933329 21.00236392 C113.78620295 21.00600493 111.22309221 21.01224364 108.65996933 21.01936531 C99.71943044 21.04386706 90.77894965 21.0569133 81.83837891 21.06045532 C73.50230924 21.06409135 65.1666076 21.09398946 56.83065045 21.13585991 C49.67556879 21.17054006 42.52060922 21.18600336 35.36544406 21.18670136 C31.09116357 21.18749495 26.81725784 21.19627072 22.54306412 21.22469902 C18.52263529 21.25084109 14.50289296 21.25310703 10.48241806 21.23704338 C9.00739802 21.23522578 7.53233887 21.24194784 6.05740356 21.25786209 C4.04285666 21.27827231 2.02805158 21.26479924 0.01345825 21.24964905 C-1.11368528 21.25166038 -2.24082882 21.2536717 -3.40212822 21.25574398 C-7.37622432 20.43659554 -8.88259652 18.73193469 -11.4140625 15.63491821 C-12.078125 13.13491821 -12.078125 13.13491821 -12.0390625 10.63491821 C-12.05195313 9.80991821 -12.06484375 8.98491821 -12.078125 8.13491821 C-10.42269006 1.90269254 -5.99591645 0.01005123 0 0 Z " fill="#000000" transform="translate(233.4140625,77.36508178710938)"/>
<path d="M0 0 C3.67080764 2.52368025 4.75864984 4.17035883 6 8.4375 C6 12.53094236 5.22004022 14.59065251 3 18 C-1.05069602 20.70046402 -4.24723307 20.64204044 -9 20 C-12 18.5625 -12 18.5625 -14 16 C-15.29282605 11.66903273 -15.53077114 8.24731218 -13.75 4.0625 C-9.79720795 -0.59614777 -5.75117587 -0.96861909 0 0 Z " fill="#000000" transform="translate(194,78)"/>
<path d="M0 0 C2.87029869 1.79393668 4.49131638 2.98263276 6 6 C6.5811138 13.08958838 6.5811138 13.08958838 4.125 16.9375 C0.64160635 20.31844089 -2.03626432 20.40432349 -6.73828125 20.34375 C-9 20 -9 20 -12 17.875 C-14.26157198 14.62399027 -15 12.95490344 -15 9 C-12.22517051 0.67551153 -8.36947434 -1.23339622 0 0 Z " fill="#000000" transform="translate(427,424)"/>
</svg>
