<?xml version="1.0" encoding="UTF-8"?>
<svg version="1.1" xmlns="http://www.w3.org/2000/svg" width="512" height="512">
<path d="M0 0 C7.26 0 14.52 0 22 0 C22 68.31 22 136.62 22 207 C42.295 198.09 42.295 198.09 63 189 C92.7295082 176 92.7295082 176 95 176 C95 117.92 95 59.84 95 0 C102.26 0 109.52 0 117 0 C117 54.78 117 109.56 117 166 C139.77 156.1 139.77 156.1 163 146 C184 137 184 137 186 137 C186 91.79 186 46.58 186 0 C193.26 0 200.52 0 208 0 C208.33 41.58 208.66 83.16 209 126 C226.82 118.41 244.64 110.82 263 103 C266.96 101.35 270.92 99.7 275 98 C275.33 65.66 275.66 33.32 276 0 C283.26 0 290.52 0 298 0 C298 29.04 298 58.08 298 88 C306.91 84.04 315.82 80.08 325 76 C338.7 70 338.7 70 341 70 C342.34242421 72.93342898 343.67234067 75.87236252 345 78.8125 C345.3815625 79.64587891 345.763125 80.47925781 346.15625 81.33789062 C346.5171875 82.14033203 346.878125 82.94277344 347.25 83.76953125 C347.58515625 84.50792236 347.9203125 85.24631348 348.265625 86.00708008 C349 88 349 88 349 91 C343.95081868 93.188158 338.90115667 95.37520182 333.85107422 97.5612793 C332.13838127 98.30284609 330.42581289 99.04470063 328.71337891 99.78686523 C323.14586415 102.19967189 317.57552123 104.60574821 312 107 C311.02027222 107.42107025 311.02027222 107.42107025 310.02075195 107.85064697 C308.32301417 108.57803063 306.62255548 109.29905469 304.921875 110.01953125 C304.0050293 110.40858643 303.08818359 110.7976416 302.14355469 111.19848633 C300 112 300 112 298 112 C298 183.94 298 255.88 298 330 C290.74 330 283.48 330 276 330 C275.67 261.69 275.34 193.38 275 123 C248.765 134.385 248.765 134.385 222 146 C210 151 210 151 208 151 C208 210.07 208 269.14 208 330 C200.74 330 193.48 330 186 330 C186 274.23 186 218.46 186 161 C176.43 165.29 166.86 169.58 157 174 C151.92250556 176.20590965 146.84713873 178.40433648 141.75 180.5625 C139.49455501 181.52157906 137.23934106 182.48120166 134.984375 183.44140625 C133.45200195 184.09133545 133.45200195 184.09133545 131.88867188 184.75439453 C128.50180542 186.21482325 125.15137358 187.74725635 121.81347656 189.31616211 C120 190 120 190 117 190 C117 236.2 117 282.4 117 330 C109.74 330 102.48 330 95 330 C94.67 287.43 94.34 244.86 94 201 C59.48510662 215.9658197 59.48510662 215.9658197 25 231 C24.01 231 23.02 231 22 231 C22 263.67 22 296.34 22 330 C14.74 330 7.48 330 0 330 C-0.33 300.96 -0.66 271.92 -1 242 C-14.2 247.61 -27.4 253.22 -41 259 C-41.66 259 -42.32 259 -43 259 C-44.37000201 256.06963123 -45.71818552 253.12973086 -47.0625 250.1875 C-47.64741211 248.93743164 -47.64741211 248.93743164 -48.24414062 247.66210938 C-48.60830078 246.85966797 -48.97246094 246.05722656 -49.34765625 245.23046875 C-49.68804932 244.49207764 -50.02844238 243.75368652 -50.37915039 242.99291992 C-51 241 -51 241 -50 238 C-48.38378906 236.97607422 -48.38378906 236.97607422 -46.265625 236.0546875 C-45.47389893 235.70422363 -44.68217285 235.35375977 -43.86645508 234.99267578 C-42.57130981 234.43942627 -42.57130981 234.43942627 -41.25 233.875 C-40.36272217 233.48683105 -39.47544434 233.09866211 -38.5612793 232.69873047 C-36.67699225 231.87680258 -34.79043997 231.06005162 -32.90185547 230.24804688 C-30.03504495 229.01507234 -27.1752684 227.76690226 -24.31640625 226.515625 C-22.48216764 225.71783706 -20.64754364 224.92093449 -18.8125 224.125 C-17.54164551 223.57175049 -17.54164551 223.57175049 -16.24511719 223.00732422 C-15.42817383 222.65686035 -14.61123047 222.30639648 -13.76953125 221.9453125 C-13.06417236 221.64125488 -12.35881348 221.33719727 -11.63208008 221.02392578 C-7.80841073 219.53645066 -3.89226497 218.29742166 0 217 C0 145.39 0 73.78 0 0 Z " fill="#000000" transform="translate(107,91)"/>
</svg>
