<?xml version="1.0" encoding="UTF-8"?>
<svg version="1.1" xmlns="http://www.w3.org/2000/svg" width="512" height="512">
<path d="M0 0 C4.68583319 3.49122354 7.89336649 8.74983107 8.9765625 14.47265625 C9.07955154 16.99568334 9.131315 19.49177679 9.13478088 22.01495361 C9.14218785 23.15939127 9.14218785 23.15939127 9.14974445 24.32694888 C9.16510961 26.88495593 9.17347742 29.44293789 9.18188477 32.00097656 C9.19146406 33.83405783 9.20147417 35.66713688 9.21188354 37.50021362 C9.23893309 42.4791427 9.25994241 47.45808126 9.27988553 52.43704319 C9.30174475 57.63942253 9.32913376 62.84177265 9.35594177 68.04412842 C9.40586951 77.89670133 9.45080806 87.74929045 9.49396414 97.60189509 C9.5433358 108.81823873 9.5982542 120.03455304 9.65364373 131.25086832 C9.76746503 154.32477028 9.87430377 177.39870036 9.9765625 200.47265625 C10.79745361 200.01938965 11.61834473 199.56612305 12.46411133 199.09912109 C15.5634352 197.38796107 18.66289858 195.67705426 21.76245117 193.96630859 C23.09388577 193.23138108 24.42526761 192.49635798 25.7565918 191.76123047 C33.8181324 187.30992405 41.88633026 182.87170025 49.9765625 178.47265625 C49.97802906 177.61843551 49.97949562 176.76421476 49.98100662 175.88410854 C50.01806729 155.09365822 50.07707224 134.30337101 50.16046524 113.51305294 C50.20026509 103.45897595 50.2326528 93.40497734 50.24755859 83.35083008 C50.26057019 74.58705664 50.2875223 65.82345558 50.33117557 57.05977923 C50.35380143 52.41996385 50.3694725 47.7803612 50.36844635 43.14048576 C50.3677004 38.77127682 50.38562481 34.4025383 50.41773033 30.03345108 C50.42623339 28.43191867 50.42797647 26.83033353 50.42236519 25.22878838 C50.41570943 23.03678019 50.43368049 20.84626193 50.45758057 18.65440369 C50.46311132 16.81680937 50.46311132 16.81680937 50.46875381 14.94209194 C51.23652539 9.69654537 53.65429632 4.99952974 57.9140625 1.66015625 C64.4051852 -2.97635997 70.19162126 -3.15499831 77.9765625 -2.52734375 C83.76128963 -1.46857506 87.06751097 1.05320214 90.75 5.55859375 C93.45818495 9.78474224 94.22839633 13.44088848 94.2550354 18.42683411 C94.26619888 19.62010315 94.27736237 20.81337219 94.28886414 22.0428009 C94.29102432 23.34327866 94.29318451 24.64375641 94.29541016 25.98364258 C94.30471309 27.37353089 94.31488231 28.76341363 94.32585144 30.15328979 C94.35312445 33.91939073 94.36829281 37.68545431 94.38127947 41.45162797 C94.39692184 45.39013335 94.42370853 49.32856259 94.4493103 53.26701355 C94.49607851 60.72187949 94.53283209 68.17675978 94.56598318 75.63169736 C94.6042184 84.12021156 94.6536249 92.60864926 94.70396733 101.09709895 C94.80725807 118.55556269 94.89652775 136.01407073 94.9765625 153.47265625 C98.61606518 151.41698477 102.25531866 149.36087249 105.89453125 147.3046875 C106.91349487 146.72916138 107.9324585 146.15363525 108.9822998 145.56066895 C115.75542851 141.73343831 122.52860276 137.90588629 129.2677002 134.0189209 C133.75243086 131.47265625 133.75243086 131.47265625 135.9765625 131.47265625 C135.97287533 130.86673645 135.96918816 130.26081665 135.96538925 129.63653564 C135.87692732 114.87113069 135.81079905 100.10574144 135.76931381 85.34013367 C135.74871689 78.19947778 135.72065165 71.05899913 135.67480469 63.91845703 C135.63484847 57.69239873 135.60910882 51.46646884 135.60020852 45.24028587 C135.59500846 41.94561168 135.58072725 38.65138891 135.55364227 35.35681152 C135.52456116 31.67254963 135.52060866 27.9890459 135.52246094 24.3046875 C135.50807983 23.22071182 135.49369873 22.13673615 135.47888184 21.01991272 C135.5171706 13.97109891 136.50026552 8.31019512 141.35320663 2.95295715 C147.26345417 -2.39301173 153.33802506 -2.99730679 161.0078125 -2.8359375 C168.15475928 -2.09303119 172.40485549 1.35359236 176.84765625 6.7890625 C179.6805007 11.01382359 179.11003643 15.66489878 179.09008789 20.53393555 C179.09023392 21.46096283 179.09037994 22.38799011 179.0905304 23.34310913 C179.08983304 26.41105479 179.08204887 29.47893993 179.07421875 32.546875 C179.07235394 34.67251045 179.07093034 36.79814632 179.06993103 38.92378235 C179.06611079 44.52154728 179.05628469 50.11928632 179.04522705 55.71704102 C179.03500234 61.42789357 179.03043113 67.13875031 179.02539062 72.84960938 C179.01466201 84.05730305 178.99759147 95.2649775 178.9765625 106.47265625 C182.78208995 104.41821865 186.58645212 102.36163211 190.390625 100.3046875 C191.45676025 99.72916138 192.52289551 99.15363525 193.62133789 98.56066895 C200.57153064 94.80096843 207.48353467 90.98448244 214.31860352 87.0189209 C218.76457688 84.47265625 218.76457688 84.47265625 220.9765625 84.47265625 C220.96656975 83.18385559 220.96656975 83.18385559 220.95637512 81.86901855 C220.89611506 73.74822924 220.8505126 65.62751567 220.82112598 57.50655365 C220.80550982 53.33207107 220.78434617 49.15777418 220.75024414 44.98339844 C220.71750537 40.95038543 220.69967907 36.91755037 220.69193077 32.88441467 C220.68641319 31.35031842 220.67563895 29.81623124 220.65937233 28.2822113 C220.56545138 19.05297301 220.80684551 11.8367927 225.6015625 3.72265625 C230.64559828 -1.05590396 236.08488229 -2.77242191 242.9765625 -3.02734375 C248.61421701 -2.79064833 253.38548453 -1.94796903 257.9765625 1.47265625 C262.66613536 6.86467567 265.03841303 11.83322544 265.18188477 18.96582031 C265.20182999 19.84643127 265.22177521 20.72704224 265.24232483 21.63433838 C265.26739357 23.0470401 265.26739357 23.0470401 265.29296875 24.48828125 C265.31374985 25.45924744 265.33453094 26.43021362 265.35594177 27.43060303 C265.42125112 30.5278831 265.48023573 33.62524693 265.5390625 36.72265625 C265.58226542 38.82422736 265.62588028 40.92579005 265.66992188 43.02734375 C265.77691348 48.17569573 265.8782334 53.32413183 265.9765625 58.47265625 C266.62093262 58.10503174 267.26530273 57.73740723 267.92919922 57.35864258 C270.90178685 55.66477326 273.87665491 53.97494751 276.8515625 52.28515625 C277.86476563 51.70701172 278.87796875 51.12886719 279.921875 50.53320312 C282.92969806 48.82684197 285.94899299 47.14370433 288.9765625 45.47265625 C289.87455566 44.97048584 290.77254883 44.46831543 291.69775391 43.95092773 C299.82356137 39.60595325 307.43813454 38.68854252 316.5390625 41.171875 C322.38953462 43.79793919 325.96119074 47.86170031 328.2890625 53.84765625 C329.89272237 62.30331737 329.09349907 69.57349147 324.42578125 76.91015625 C321.06494027 80.42644283 317.28231513 82.46232744 313.0390625 84.78515625 C312.141875 85.28716553 311.2446875 85.7891748 310.3203125 86.30639648 C307.21227366 88.04055039 304.09497658 89.7572329 300.9765625 91.47265625 C299.72883166 92.16179761 298.48127947 92.85126249 297.23388672 93.54101562 C286.79103896 99.31516711 286.79103896 99.31516711 281.66430664 102.12817383 C280.75576683 102.62713165 280.75576683 102.62713165 279.82887268 103.13616943 C278.17735225 104.04280111 276.52522059 104.94831912 274.87304688 105.85375977 C272.96425248 106.92061881 271.07856828 108.0300841 269.22070312 109.18334961 C266.9765625 110.47265625 266.9765625 110.47265625 264.9765625 110.47265625 C264.97932788 111.55787315 264.98209326 112.64309006 264.98494244 113.76119232 C265.05154425 140.16819698 265.1008413 166.57519074 265.13199902 192.98226166 C265.14746718 205.75252772 265.16855583 218.5227383 265.20288086 231.29296875 C265.23278464 242.42363348 265.25213787 253.55425802 265.25882798 264.6849618 C265.26273855 270.57845185 265.27192809 276.47182694 265.29375267 282.36528015 C265.31413316 287.91379247 265.32039307 293.46214258 265.31588554 299.01068878 C265.31671004 301.04560986 265.32266629 303.08053643 265.33417892 305.11542511 C265.34914738 307.89790831 265.34550016 310.67978241 265.33732605 313.46228027 C265.34606457 314.26385858 265.3548031 315.06543689 265.36380643 315.89130545 C265.31200553 322.43375813 263.71169068 327.53628548 260.3515625 333.22265625 C255.30752672 338.00121646 249.86824271 339.71773441 242.9765625 339.97265625 C237.33890799 339.73596083 232.56764047 338.89328153 227.9765625 335.47265625 C222.26191796 328.90202065 220.83008352 323.47668294 220.81834412 314.93035889 C220.81093715 313.78592123 220.81093715 313.78592123 220.80338055 312.61836362 C220.78801539 310.06035657 220.77964758 307.50237461 220.77124023 304.94433594 C220.76166094 303.11125467 220.75165083 301.27817562 220.74124146 299.44509888 C220.71419191 294.4661698 220.69318259 289.48723124 220.67323947 284.50826931 C220.65138025 279.30588997 220.62399124 274.10353985 220.59718323 268.90118408 C220.54725549 259.04861117 220.50231694 249.19602205 220.45916086 239.34341741 C220.4097892 228.12707377 220.3548708 216.91075946 220.29948127 205.69444418 C220.18565997 182.62054222 220.07882123 159.54661214 219.9765625 136.47265625 C219.15567139 136.92592285 218.33478027 137.37918945 217.48901367 137.84619141 C214.3896898 139.55735143 211.29022642 141.26825824 208.19067383 142.97900391 C206.85923923 143.71393142 205.52785739 144.44895452 204.1965332 145.18408203 C196.1349926 149.63538845 188.06679474 154.07361225 179.9765625 158.47265625 C179.97601773 159.3259552 179.97547297 160.17925415 179.97491169 161.05841064 C179.95993661 181.83253428 179.9174603 202.60644349 179.84447193 223.38044739 C179.80983645 233.42667055 179.78446829 243.47275671 179.78100586 253.51904297 C179.77796397 262.27662303 179.75744315 271.03395899 179.71603793 279.79144478 C179.69472671 284.4274279 179.68209766 289.06306416 179.69040871 293.69909668 C179.69796076 298.06592594 179.68207954 302.43205306 179.64850235 306.79875374 C179.64028293 308.39825433 179.64050283 309.99782493 179.64996529 311.59731865 C179.73360376 327.29370845 179.73360376 327.29370845 173.9765625 333.47265625 C168.1510542 339.00688913 162.79143356 339.88735586 154.98046875 339.71484375 C148.83368205 339.21926407 144.77974955 337.70772322 140.6015625 333.09765625 C136.90441098 328.57432562 135.72908168 324.31916346 135.6980896 318.51847839 C135.68692612 317.32520935 135.67576263 316.13194031 135.66426086 314.9025116 C135.66210068 313.60203384 135.65994049 312.30155609 135.65771484 310.96166992 C135.64841191 309.57178161 135.63824269 308.18189887 135.62727356 306.79202271 C135.60000055 303.02592177 135.58483219 299.25985819 135.57184553 295.49368453 C135.55620316 291.55517915 135.52941647 287.61674991 135.5038147 283.67829895 C135.45704649 276.22343301 135.42029291 268.76855272 135.38714182 261.31361514 C135.3489066 252.82510094 135.2995001 244.33666324 135.24915767 235.84821355 C135.14586693 218.38974981 135.05659725 200.93124177 134.9765625 183.47265625 C131.33705982 185.52832773 127.69780634 187.58444001 124.05859375 189.640625 C123.03963013 190.21615112 122.0206665 190.79167725 120.9708252 191.38464355 C114.19769649 195.21187419 107.42452224 199.03942621 100.6854248 202.9263916 C96.20069414 205.47265625 96.20069414 205.47265625 93.9765625 205.47265625 C93.97932788 206.07342232 93.98209326 206.67418839 93.98494244 207.29315948 C94.05129077 221.9334134 94.10088607 236.57365842 94.13199902 251.2140274 C94.14744621 258.29410717 94.16849443 265.37408636 94.20288086 272.45410156 C94.23605666 279.28813122 94.2534218 286.12205637 94.26119423 292.9561615 C94.26673247 295.56202335 94.27754728 298.16787956 94.29375267 300.7736969 C94.31556482 304.42673034 94.31852775 308.07933367 94.31713867 311.73242188 C94.3279245 312.80704681 94.33871033 313.88167175 94.349823 314.98886108 C94.32166398 321.84336504 93.80053993 327.93071845 89.36328125 333.49609375 C82.03179085 339.32757807 75.27890897 340.43961069 65.9765625 339.47265625 C59.7592269 337.74216451 55.52602525 333.76614567 51.9765625 328.47265625 C50.63791969 324.45672782 50.84588478 320.59791341 50.86303711 316.41137695 C50.86289108 315.48434967 50.86274506 314.55732239 50.8625946 313.60220337 C50.86329196 310.53425771 50.87107613 307.46637257 50.87890625 304.3984375 C50.88077106 302.27280205 50.88219466 300.14716618 50.88319397 298.02153015 C50.88701421 292.42376522 50.89684031 286.82602618 50.90789795 281.22827148 C50.91812266 275.51741893 50.92269387 269.80656219 50.92773438 264.09570312 C50.93846299 252.88800945 50.95553353 241.680335 50.9765625 230.47265625 C47.17103505 232.52709385 43.36667288 234.58368039 39.5625 236.640625 C37.96329712 237.50391418 37.96329712 237.50391418 36.33178711 238.38464355 C29.38159436 242.14434407 22.46959033 245.96083006 15.63452148 249.9263916 C11.18854812 252.47265625 11.18854812 252.47265625 8.9765625 252.47265625 C8.98655525 253.76145691 8.98655525 253.76145691 8.99674988 255.07629395 C9.05700994 263.19708326 9.1026124 271.31779683 9.13199902 279.43875885 C9.14761518 283.61324143 9.16877883 287.78753832 9.20288086 291.96191406 C9.23561963 295.99492707 9.25344593 300.02776213 9.26119423 304.06089783 C9.26671181 305.59499408 9.27748605 307.12908126 9.29375267 308.6631012 C9.38767362 317.89233949 9.14627949 325.1085198 4.3515625 333.22265625 C-0.69247328 338.00121646 -6.13175729 339.71773441 -13.0234375 339.97265625 C-18.66109201 339.73596083 -23.43235953 338.89328153 -28.0234375 335.47265625 C-32.71301036 330.08063683 -35.08528803 325.11208706 -35.22875977 317.97949219 C-35.2586776 316.65857574 -35.2586776 316.65857574 -35.28919983 315.31097412 C-35.30591232 314.36917297 -35.32262482 313.42737183 -35.33984375 312.45703125 C-35.36062485 311.48606506 -35.38140594 310.51509888 -35.40281677 309.51470947 C-35.46812612 306.4174294 -35.52711073 303.32006557 -35.5859375 300.22265625 C-35.62914042 298.12108514 -35.67275528 296.01952245 -35.71679688 293.91796875 C-35.82378848 288.76961677 -35.9251084 283.62118067 -36.0234375 278.47265625 C-36.66780762 278.84028076 -37.31217773 279.20790527 -37.97607422 279.58666992 C-40.94866185 281.28053924 -43.92352991 282.97036499 -46.8984375 284.66015625 C-47.91164062 285.23830078 -48.92484375 285.81644531 -49.96875 286.41210938 C-52.97657306 288.11847053 -55.99586799 289.80160817 -59.0234375 291.47265625 C-59.92143066 291.97482666 -60.81942383 292.47699707 -61.74462891 292.99438477 C-69.87043637 297.33935925 -77.48500954 298.25676998 -86.5859375 295.7734375 C-92.43640962 293.14737331 -96.00806574 289.08361219 -98.3359375 283.09765625 C-99.93959737 274.64199513 -99.14037407 267.37182103 -94.47265625 260.03515625 C-91.11181527 256.51886967 -87.32919013 254.48298506 -83.0859375 252.16015625 C-82.18875 251.65814697 -81.2915625 251.1561377 -80.3671875 250.63891602 C-77.25914866 248.90476211 -74.14185158 247.1880796 -71.0234375 245.47265625 C-69.77570666 244.78351489 -68.52815447 244.09405001 -67.28076172 243.40429688 C-56.83791396 237.63014539 -56.83791396 237.63014539 -51.71118164 234.81713867 C-51.10548843 234.48450012 -50.49979523 234.15186157 -49.87574768 233.80914307 C-48.22422725 232.90251139 -46.57209559 231.99699338 -44.91992188 231.09155273 C-43.01112748 230.02469369 -41.12544328 228.9152284 -39.26757812 227.76196289 C-37.0234375 226.47265625 -37.0234375 226.47265625 -35.0234375 226.47265625 C-35.02620288 225.38743935 -35.02896826 224.30222244 -35.03181744 223.18412018 C-35.09841925 196.77711552 -35.1477163 170.37012176 -35.17887402 143.96305084 C-35.19434218 131.19278478 -35.21543083 118.4225742 -35.24975586 105.65234375 C-35.27965964 94.52167902 -35.29901287 83.39105448 -35.30570298 72.2603507 C-35.30961355 66.36686065 -35.31880309 60.47348556 -35.34062767 54.58003235 C-35.36100816 49.03152003 -35.36726807 43.48316992 -35.36276054 37.93462372 C-35.36358504 35.89970264 -35.36954129 33.86477607 -35.38105392 31.82988739 C-35.39602238 29.04740419 -35.39237516 26.26553009 -35.38420105 23.48303223 C-35.39293957 22.68145392 -35.4016781 21.87987561 -35.41068143 21.05400705 C-35.35888053 14.51155437 -33.75856568 9.40902702 -30.3984375 3.72265625 C-22.23790345 -4.00837601 -9.9314494 -5.03795342 0 0 Z " fill="#000000" transform="translate(141.0234375,87.52734375)"/>
</svg>
